<svg width="84" height="41" viewBox="0 0 84 41" fill="none" xmlns="http://www.w3.org/2000/svg">
<path d="M25.7148 26.3223H31.0644V28.0051H28.5568V39.9949H25.8263V26.3223" fill="black"/>
<path d="M31.0703 39.9949H33.8008L34.0237 36.4098H35.3889L35.6118 39.9949H38.3423L36.8656 26.3223H32.547L31.0703 39.9949ZM34.1444 34.8368L34.5995 28.0051H34.7109L35.166 34.8368H34.1444Z" fill="black"/>
<path d="M42.3296 35.1764V37.7554C42.3296 38.0938 42.5525 38.2036 42.7847 38.2036C43.0169 38.2036 43.2398 37.9841 43.2398 37.7554V34.6185C43.2398 34.1704 43.1284 33.7223 42.0975 33.7223H40.9644V32.2681H42.0975C42.8962 32.2681 43.119 32.0486 43.119 31.2621V28.5733C43.119 28.3538 42.8869 28.1252 42.664 28.1252C42.5525 28.1252 42.2089 28.2349 42.2089 28.5733V30.814H39.5898V28.9117C39.5898 27.9057 39.7013 26.4424 41.6331 26.4424H43.9085C45.8403 26.4424 45.961 27.8965 45.961 28.9117V31.1524C45.961 32.6065 44.9394 33.0546 44.0292 33.0546V33.1644C45.8496 33.1644 45.961 34.5088 45.961 35.0667V37.8652C45.961 38.8712 45.8496 40.3345 43.9085 40.3345H41.6331C39.7013 40.3345 39.5898 38.8804 39.5898 37.8652V35.5148H42.3203" fill="black"/>
<path d="M47.793 26.3223H54.2754V39.9949H51.545V28.0051H50.6349V39.9949H47.9044V26.3223" fill="black"/>
<path d="M56.0977 39.9977H58.8281V35.2969H60.4162C62.348 35.2969 62.4687 33.8427 62.4687 32.8275V28.6846C62.4687 27.6786 62.3573 26.2153 60.4162 26.2153H56.0977V39.9977ZM58.8281 33.8336V28.0079H59.1718C59.5154 28.0079 59.7383 28.2273 59.7383 28.6846V33.1659C59.7383 33.6141 59.5154 33.8336 59.1718 33.8336H58.8281Z" fill="black"/>
<path d="M64.4062 37.5273C64.4062 38.5333 64.5177 39.9874 66.4587 39.9874H68.7341C70.6658 39.9874 70.7773 38.5333 70.7773 37.5273V28.6744C70.7773 27.6684 70.6658 26.2051 68.7341 26.2051H66.4587C64.5269 26.2051 64.4062 27.6592 64.4062 28.6744V37.5273ZM68.0468 37.7559C68.0468 37.9845 67.8147 38.204 67.5918 38.204C67.4803 38.204 67.1367 38.0943 67.1367 37.7559V28.4549C67.1367 28.1165 67.3596 28.0068 67.5918 28.0068C67.8239 28.0068 68.0468 28.2354 68.0468 28.4549V37.7559Z" fill="black"/>
<path d="M79.8789 26.3223H83.5195V39.9949H80.789V31.3615H80.5568L79.0802 39.9949H76.8048L75.3281 31.3615H75.2167V39.9949H72.5977V26.3223H76.2383L78.0586 35.9617L79.8789 26.3223Z" fill="black"/>
<path d="M21.8537 13.7746C21.8537 15.2288 21.6215 16.692 21.3986 17.5883C21.5101 16.0153 21.2871 13.8935 20.9435 12.2107C20.5999 10.5279 19.5784 7.72942 18.7797 6.49477C17.981 7.72942 17.0708 10.1896 16.6158 12.2107C16.1607 14.3416 16.1607 16.8018 16.1607 17.5883C16.0493 16.9115 15.7057 14.6709 15.8171 12.3205C15.9285 10.4182 16.3836 8.50679 16.6158 7.61053C17.5259 4.58335 18.6682 2.68109 18.7797 2.3427C19.0026 2.68109 20.377 5.03149 21.055 7.50078C21.7329 10.0798 21.9651 12.4302 21.8537 13.7746ZM18.8911 24.5298C18.436 23.7432 17.8695 22.2891 17.7581 20.0484C17.7581 17.8078 18.6682 15.9055 18.8911 15.5671C19.114 16.0153 19.9127 17.5883 20.0334 19.829C20.0334 21.9507 19.3462 23.7432 18.8911 24.5298ZM22.188 7.61053C21.3893 3.91573 19.2254 0.998307 18.8911 0.44043C18.436 1.1172 16.7272 3.80599 15.8171 6.71427C14.907 9.96093 14.6747 12.8783 15.0184 15.6769C15.362 18.4754 16.6065 21.5026 16.6065 21.5026C17.2937 23.0756 18.2039 24.6395 18.8818 25.5358C19.792 24.3011 21.9558 20.8258 22.6338 16.125C22.9867 13.546 22.9867 11.1956 22.188 7.61053Z" fill="black"/>
<path d="M20.2555 26.3219H13.773V30.5837C15.2497 29.1296 17.7573 29.1296 19.3454 30.5837C20.8221 32.0379 20.8221 34.5072 19.3454 35.9613C17.8687 37.4155 15.8162 38.202 13.8845 38.202C11.832 38.202 9.90023 37.4155 8.42356 35.9613C5.6931 33.2725 5.46094 29.2393 7.51342 26.2122C7.73632 25.764 8.07993 25.4256 8.42356 25.0873C9.90023 23.6331 11.9527 22.8466 13.8845 22.8466V12.5396C6.25963 12.5396 0 18.7037 0 26.2122C0 33.7206 6.25963 39.8848 13.8845 39.8848C17.8687 39.8848 21.5093 38.202 24.0076 35.5132V26.2122H20.2555" fill="black"/>
</svg>
