<svg width="57" height="42" viewBox="0 0 57 42" fill="none" xmlns="http://www.w3.org/2000/svg">
<g style="mix-blend-mode:multiply">
<path d="M6.99687 35.1432C6.83132 34.6393 6.48514 33.4537 4.95002 33.4537C4.09216 33.4537 2.55705 34.1206 2.55705 36.6549C2.55705 38.3444 3.2343 39.8561 4.95002 39.8561C5.97344 39.8561 6.83132 39.1892 6.99687 38.1666H8.87814C8.53199 40.1822 7.1624 41.5309 4.95002 41.5309C2.55705 41.5309 0.675781 39.8413 0.675781 36.8179C0.675781 33.6167 2.55705 32.105 4.95002 32.105C7.68916 32.105 8.87814 33.9576 8.87814 35.3062H6.99687V35.1432Z" fill="black"/>
<path d="M11.2719 36.9953L13.4994 34.4609H15.7117L13.3187 37.1583L15.7117 41.2043H13.6649L11.9492 38.3439L11.2719 39.1739V41.2043H9.39062V34.4609H11.2719V36.9953Z" fill="black"/>
<path d="M17.0796 37.838C17.0796 38.6827 17.4257 39.8535 18.7953 39.8535C20.1649 39.8535 20.5111 38.6827 20.5111 37.838C20.5111 36.9932 20.3455 35.8224 18.7953 35.8224C17.4257 35.8076 17.0796 36.9932 17.0796 37.838ZM22.2117 37.838C22.2117 40.1944 20.496 41.3801 18.7953 41.3801C16.914 41.3801 15.3789 40.2092 15.3789 37.838C15.3789 35.4815 17.0946 34.3107 18.7953 34.3107C20.6766 34.2959 22.2117 35.4815 22.2117 37.838Z" fill="black"/>
<path d="M29.0461 34.4585V41.187H27.3304V35.9702H25.4491V37.9858C25.4491 40.5053 24.5913 41.3501 23.4023 41.3501C23.0562 41.3501 22.5445 41.3501 22.3789 41.187V39.8384H22.8906C23.4023 39.8384 23.7485 39.4975 23.7485 37.4819V34.4585H29.0461Z" fill="black"/>
<path d="M31.618 36.9953L34.011 34.4609H36.0578L33.6649 37.1583L36.2234 41.2043H34.011L32.4608 38.3439L31.618 39.1739V41.2043H29.9023V34.4609H31.618V36.9953Z" fill="black"/>
<path d="M37.5952 37.838C37.5952 38.6827 37.9414 39.8535 39.3109 39.8535C40.6805 39.8535 41.0266 38.6827 41.0266 37.838C41.0266 36.9932 40.8611 35.8224 39.3109 35.8224C37.9414 35.8076 37.5952 36.9932 37.5952 37.838ZM42.7273 37.838C42.7273 40.1944 41.0116 41.3801 39.3109 41.3801C37.4297 41.3801 35.8945 40.2092 35.8945 37.838C35.8945 35.4815 37.6103 34.3107 39.3109 34.3107C41.0116 34.2959 42.7273 35.4815 42.7273 37.838Z" fill="black"/>
<path d="M45.1189 40.0187H46.4885C47.1658 40.0187 47.5119 39.8556 47.5119 39.1739C47.5119 38.67 47.0002 38.3291 46.4885 38.3291H45.1189V40.0187ZM45.1189 37.1583H46.3079C46.8196 37.1583 47.3313 36.9953 47.3313 36.3135C47.3313 35.8096 46.9852 35.6466 46.3079 35.6466H45.1189V37.1583ZM43.2377 34.4609H46.3079C47.843 34.4609 48.8665 35.1279 48.8665 36.1505C48.8665 36.9953 48.3547 37.4992 47.6624 37.6622C48.3397 37.8252 49.1976 38.3291 49.1976 39.3517C49.1976 40.5226 48.1742 41.2043 46.639 41.2043H43.2227V34.4609H43.2377Z" fill="black"/>
<path d="M51.2704 37.838C51.2704 38.6827 51.6166 39.8535 52.9862 39.8535C54.3557 39.8535 54.7019 38.6827 54.7019 37.838C54.7019 36.9932 54.5363 35.8224 52.9862 35.8224C51.436 35.8076 51.2704 36.9932 51.2704 37.838ZM56.3876 37.838C56.3876 40.1944 54.6718 41.3801 52.9711 41.3801C51.0898 41.3801 49.5547 40.2092 49.5547 37.838C49.5547 35.4815 51.2704 34.3107 52.9711 34.3107C54.6868 34.2959 56.3876 35.4815 56.3876 37.838Z" fill="black"/>
<path d="M17.5931 13.2534L10.4142 11.5639C9.22521 11.223 7.34398 10.897 7.34398 8.54051C7.34398 6.02102 10.0831 5.17625 12.476 5.17625C17.7737 5.17625 18.2854 8.19964 18.466 9.54831H21.8824V14.943C20.4978 14.0982 19.1283 13.7573 17.5931 13.2534ZM13.665 30.4305C15.2001 30.4305 18.9627 30.0896 21.7018 28.074V29.5857H27.3456V22.8572L29.7386 20.5007L34.8707 29.5857H41.7035L33.8323 16.6325L41.3574 8.37749H34.344L27.165 16.4547V0.967217H21.5212V3.50153C19.8055 1.64896 17.0814 0.300293 12.6266 0.300293C3.22019 0.300293 1.51951 6.02102 1.51951 9.05923C1.51951 13.4313 3.9125 15.7878 8.02121 16.7956L13.8306 18.1442C16.9008 18.8111 19.1283 19.4929 19.1283 21.6863C19.1283 24.7097 15.8774 25.3915 12.9727 25.3915C7.67506 25.3915 6.81721 22.3681 6.81721 20.6785H1.00781C1.18841 24.3689 3.06969 30.4305 13.665 30.4305Z" fill="black"/>
</g>
</svg>
