<svg width="107" height="30" viewBox="0 0 107 30" fill="none" xmlns="http://www.w3.org/2000/svg">
<path d="M75.4199 11.0068H71.457V25.2947H75.4199V11.0068Z" fill="black"/>
<path d="M65.8484 11.0068L61.9701 21.4027L58.0918 11.0068H54.1289L59.4656 25.2947H60.5118H63.4179H64.4746L69.8007 11.0068H65.8484Z" fill="black"/>
<path d="M89.4021 14.1494V10.9963H84.6572V7.05225H80.6944V10.9963H77.5664V14.1494H80.6944V20.2996C80.6944 23.4735 82.3112 25.586 86.4114 25.586C88.0071 25.586 89.3915 25.0137 89.3915 25.0137L88.9159 21.923C88.9159 21.923 88.134 22.1519 87.1723 22.1519C85.9993 22.1519 84.6467 21.6524 84.6467 20.0498V14.139H89.4021V14.1494Z" fill="black"/>
<path d="M43.601 18.1454L46.0633 11.5685L48.515 18.1454H43.601ZM51.178 25.2945H55.3945L47.585 4.35693H46.951H45.5032H44.5204L36.7109 25.2945H40.9274L42.4174 21.2985H49.6774L51.178 25.2945Z" fill="black"/>
<path d="M98.4887 22.0282C96.2801 22.0282 94.4942 20.3008 94.4942 18.1779C94.4942 16.055 96.2801 14.3275 98.4887 14.3275C100.697 14.3275 102.483 16.055 102.483 18.1779C102.483 20.3008 100.697 22.0282 98.4887 22.0282ZM98.4887 10.6333C94.1983 10.6333 90.7109 13.9841 90.7109 18.1258C90.7109 22.2571 94.1983 25.6184 98.4887 25.6184C102.779 25.6184 106.266 22.2675 106.266 18.1258C106.266 13.9945 102.779 10.6333 98.4887 10.6333Z" fill="black"/>
<path d="M75.9936 6.81458C75.9936 8.20903 74.8523 9.33292 73.4363 9.33292C72.0202 9.33292 70.8789 8.20903 70.8789 6.81458C70.8789 5.43053 72.0202 4.30664 73.4363 4.30664C74.8523 4.30664 75.9936 5.43053 75.9936 6.81458Z" fill="black"/>
<path d="M13.3469 6.59571C13.3469 10.2275 10.3562 13.1725 6.67872 13.1725C2.99063 13.1725 0 10.2275 0 6.59571C0 2.96389 2.99063 0.0292969 6.67872 0.0292969C10.3668 0.0292969 13.3469 2.9743 13.3469 6.59571Z" fill="black"/>
<path d="M30.0482 21.624C30.0482 26.0363 26.413 29.616 21.9323 29.616C17.4517 29.616 13.8164 26.0363 13.8164 21.624C13.8164 17.2117 17.4517 13.6319 21.9323 13.6319C26.413 13.6215 30.0482 17.2013 30.0482 21.624Z" fill="black"/>
<path d="M27.1546 6.5963C27.1546 9.43724 24.8191 11.7474 21.9236 11.7474C19.0386 11.7474 16.7031 9.44764 16.7031 6.5963C16.7031 3.75537 19.0386 1.45557 21.9236 1.45557C24.8085 1.45557 27.1546 3.75537 27.1546 6.5963Z" fill="black"/>
<path d="M10.4648 21.6238C10.4648 23.6842 8.774 25.3388 6.68163 25.3388C4.59983 25.3388 2.89844 23.6738 2.89844 21.6238C2.89844 19.5738 4.58926 17.9087 6.68163 17.9087C8.774 17.8983 10.4648 19.5633 10.4648 21.6238Z" fill="black"/>
</svg>
