<svg width="127" height="23" viewBox="0 0 127 23" fill="none" xmlns="http://www.w3.org/2000/svg">
<path d="M4.64128 7.41211H6.2603C6.67963 7.41211 6.83112 7.5875 6.98255 8.04351C7.77461 10.3586 9.11412 12.3814 9.66158 12.3814C9.87125 12.3814 9.96444 12.2879 9.96444 11.7617V9.36477C9.9295 8.6866 9.68487 8.3826 9.51015 8.17213C9.40532 8.03182 9.31215 7.92658 9.31215 7.78627C9.31215 7.61089 9.46355 7.41211 9.71981 7.41211H12.2707C12.6085 7.41211 12.7366 7.5992 12.7366 8.00844V11.2239C12.7366 11.5747 12.8881 11.6916 12.9929 11.6916C13.2026 11.6916 13.3657 11.5747 13.7501 11.1888C14.9149 9.87924 15.7418 7.86812 15.7418 7.86812C15.8467 7.62258 16.033 7.41211 16.4523 7.41211H18.0714C18.5607 7.41211 18.6655 7.66935 18.5606 8.00844C18.351 8.95553 16.3825 11.75 16.3825 11.75C16.2077 12.0307 16.1378 12.1593 16.3825 12.475C16.464 12.5919 16.6504 12.7673 16.8484 12.9778C17.0581 13.1882 17.3027 13.4221 17.489 13.6442C18.1879 14.4276 18.7121 15.0941 18.8518 15.5501C18.98 16.0061 18.7587 16.24 18.2928 16.24H16.6737C16.2427 16.24 16.0214 15.9944 15.5438 15.4683C15.3458 15.2461 15.1012 14.9655 14.775 14.6381C13.8082 13.7144 13.4006 13.5858 13.156 13.5858C12.8299 13.5858 12.7366 13.6793 12.7366 14.147V15.6086C12.7366 16.0061 12.6085 16.24 11.5835 16.24C9.8712 16.24 7.98423 15.1993 6.64471 13.2701C4.64124 10.4405 4.08212 8.31244 4.08212 7.87982C4.08212 7.62258 4.17535 7.41211 4.64128 7.41211ZM1.79915 2.01016C0.238312 3.57696 0.238281 6.09086 0.238281 11.1303V12.0541C0.238281 17.0935 0.238312 19.6074 1.79915 21.1742C3.35999 22.741 5.8643 22.741 10.8846 22.741H11.8048C16.8251 22.741 19.3294 22.741 20.8902 21.1742C22.4511 19.6074 22.4511 17.0935 22.4511 12.0541V11.1303C22.4511 6.09086 22.4511 3.57696 20.8902 2.01016C19.3294 0.44336 16.8251 0.443359 11.8048 0.443359H10.8846C5.87595 0.443359 3.35999 0.44336 1.79915 2.01016Z" fill="black"/>
<path d="M36.2307 14.8373H33.3886V12.3467H36.2307C37.116 12.3467 37.6984 12.8612 37.6984 13.5978C37.6984 14.3462 37.1043 14.8373 36.2307 14.8373ZM33.3886 8.34789H36.0094C36.7898 8.34789 37.3373 8.81559 37.3373 9.47037C37.3373 10.1135 36.7898 10.5695 36.0094 10.5695H33.3886V8.34789ZM38.141 11.3996C39.0263 10.9904 39.5854 10.3005 39.5854 9.23652C39.5854 7.62295 38.1177 6.48877 35.9978 6.48877H31.1289V16.7081H36.2191C38.4089 16.7081 39.9348 15.5037 39.9348 13.8785C39.9465 12.6274 39.1428 11.7037 38.141 11.3996Z" fill="black"/>
<path d="M48.317 16.6968H51.2756L46.5931 11.4001L50.8795 6.47754H48.2005L44.7877 10.453H44.2402V6.47754H41.9922V16.6968H44.2402V12.6278H44.7877L48.317 16.6968Z" fill="black"/>
<path d="M57.0256 14.8368C55.1852 14.8368 53.9272 13.5155 53.9272 11.5979C53.9272 9.68036 55.1852 8.3591 57.0256 8.3591C58.866 8.3591 60.124 9.68036 60.124 11.5979C60.124 13.5155 58.866 14.8368 57.0256 14.8368ZM57.0256 16.8946C60.2171 16.8946 62.4652 14.6964 62.4652 11.5862C62.4652 8.47603 60.2171 6.27783 57.0256 6.27783C53.834 6.27783 51.5859 8.47603 51.5859 11.5862C51.5859 14.6964 53.834 16.8946 57.0256 16.8946Z" fill="black"/>
<path d="M71.2319 6.47754V10.5115H66.6777V6.47754H64.418V16.6968H66.6777V12.5693H71.2319V16.6968H73.48V6.47754H71.2319Z" fill="black"/>
<path d="M78.5724 16.6968H80.8205V8.54711H84.3498V6.47754H75.0547V8.54711H78.5724V16.6968Z" fill="black"/>
<path d="M89.0221 14.9873C87.9272 14.9873 87.2166 14.4144 87.2166 13.5374C87.2166 12.754 87.7874 12.2045 89.5113 12.2045H91.6429C91.6429 13.8648 90.5829 14.9873 89.0221 14.9873ZM89.6861 6.28809C87.7059 6.28809 85.9703 7.30533 85.4578 9.0826L87.5311 9.43337C87.8456 8.80198 88.5445 8.21735 89.5695 8.21735C90.8042 8.21735 91.5264 9.10599 91.6196 10.4389H89.4298C86.4362 10.4389 84.9453 11.7602 84.9453 13.6427C84.9453 15.5486 86.4129 16.9049 88.4863 16.9049C90.1519 16.9049 91.2702 15.9461 91.7594 15.0925L92.2253 16.7061H93.891V10.9651C93.891 7.99519 92.2836 6.28809 89.6861 6.28809Z" fill="black"/>
<path d="M102.657 16.6968H105.604L100.933 11.4001L105.219 6.47754H102.529L99.1276 10.453H98.5801V6.47754H96.332V16.6968H98.5801V12.6278H99.1276L102.657 16.6968Z" fill="black"/>
<path d="M109.428 16.6968H111.676V8.54711H115.205V6.47754H105.91V8.54711H109.428V16.6968Z" fill="black"/>
<path d="M121.089 8.25387C122.499 8.25387 123.559 9.1542 123.931 10.4404H118.294C118.655 9.11912 119.715 8.25387 121.089 8.25387ZM126.377 11.4693C126.377 8.5228 124.188 6.27783 121.089 6.27783C117.991 6.27783 115.801 8.49941 115.801 11.5862C115.801 14.6731 117.991 16.8946 121.089 16.8946C123.209 16.8946 125.201 15.8891 125.958 13.9481L123.838 13.5973C123.349 14.3223 122.405 14.8368 121.217 14.8368C119.493 14.8368 118.363 13.7727 118.142 12.2059H126.319C126.354 11.9838 126.377 11.7499 126.377 11.4693Z" fill="black"/>
</svg>
