<svg width="86" height="34" viewBox="0 0 86 34" fill="none" xmlns="http://www.w3.org/2000/svg">
<path d="M10.4832 0.634766H14.252C14.3969 0.634766 14.5315 0.685748 14.6351 0.797901C14.7386 0.910054 14.8007 1.03241 14.8007 1.18534V14.2664C14.8007 14.4194 14.749 14.5417 14.6351 14.6539C14.5212 14.766 14.3969 14.817 14.252 14.817H10.9802C10.6593 14.817 10.3901 14.6743 10.1726 14.3888L5.7516 8.76075V14.2664C5.7516 14.4194 5.69983 14.5417 5.58594 14.6539C5.4824 14.766 5.3478 14.817 5.20285 14.817H1.42375C1.2788 14.817 1.1442 14.766 1.04066 14.6539C0.937122 14.5417 0.875 14.4194 0.875 14.2664V1.18534C0.875 1.03241 0.926768 0.910054 1.04066 0.797901C1.1442 0.685748 1.2788 0.634766 1.42375 0.634766H4.71623C5.03719 0.634766 5.30639 0.767319 5.50311 1.0426L9.92414 7.13963V1.18534C9.92414 1.03241 9.97591 0.910054 10.0898 0.797901C10.2037 0.685748 10.3279 0.634766 10.4832 0.634766Z" fill="black"/>
<path d="M26.8746 5.66121C27.0196 5.46749 27.0921 5.24318 27.0921 5.00868C27.0921 4.76398 27.0196 4.56007 26.8746 4.37655C26.7297 4.20322 26.5226 4.11145 26.2534 4.11145H23.5304V5.95688H26.2534C26.5226 5.95688 26.7297 5.86512 26.8746 5.66121ZM23.5304 9.34187V11.33H26.4708C26.7815 11.33 27.0196 11.2281 27.1749 11.014C27.3302 10.7999 27.4027 10.5755 27.4027 10.3207V10.3003C27.4027 10.0454 27.3198 9.82107 27.1542 9.62735C26.9885 9.43363 26.7607 9.34187 26.4708 9.34187H23.5304ZM32.8901 10.3513C32.8901 13.3182 30.9851 14.8068 27.1645 14.8068H18.7987C18.6538 14.8068 18.5192 14.7558 18.4157 14.6437C18.3121 14.5315 18.25 14.4091 18.25 14.2562V1.17509C18.25 1.03235 18.3018 0.8998 18.4157 0.787647C18.5192 0.675494 18.6538 0.624512 18.7987 0.624512H26.9575C28.8833 0.624512 30.3017 0.971171 31.2128 1.66448C32.124 2.35779 32.5795 3.40795 32.5795 4.81496V4.87613C32.5795 5.52866 32.4035 6.07923 32.0515 6.53804C31.6995 6.99685 31.3371 7.28234 30.954 7.40469C31.482 7.56782 31.9376 7.92466 32.3103 8.46504C32.7038 9.0258 32.8901 9.64775 32.8901 10.3513Z" fill="black"/>
<path d="M40.5435 6.18986V9.25877C40.5435 9.77875 40.7299 10.1866 41.1026 10.4619C41.4754 10.7473 41.962 10.8799 42.5625 10.8799C43.163 10.8799 43.5979 10.7881 43.8671 10.6148C44.1363 10.4313 44.364 10.1764 44.5504 9.82972C44.7368 9.48307 44.9749 9.30975 45.2752 9.30975H49.6548C49.779 9.30975 49.8826 9.35054 49.9654 9.4423C50.0482 9.53406 50.1 9.636 50.1 9.74816C50.1 10.9818 49.4995 12.1136 48.3192 13.1331C47.7187 13.6429 46.9318 14.0508 45.9482 14.3566C44.9646 14.6727 43.7946 14.8256 42.459 14.8256C41.1233 14.8256 39.9016 14.6217 38.7937 14.2241C37.6963 13.8264 36.7955 13.1637 36.1018 12.2461C35.4081 11.3285 35.0664 10.207 35.0664 8.88153V6.5569C35.0664 5.23146 35.4081 4.09972 36.1018 3.18211C37.4063 1.46922 39.5703 0.612793 42.6143 0.612793C43.8464 0.612793 44.9542 0.76572 45.9482 1.08179C46.9318 1.39786 47.729 1.8057 48.3192 2.30529C49.5099 3.32486 50.1 4.45658 50.1 5.69026C50.1 5.81261 50.0586 5.91457 49.9654 5.99614C49.8826 6.0777 49.7687 6.12868 49.6548 6.12868H45.2648C44.9646 6.12868 44.7264 5.95535 44.5504 5.60869C44.364 5.26204 44.1363 4.99695 43.8671 4.82362C43.5979 4.64009 43.163 4.55853 42.5625 4.55853C41.962 4.55853 41.4754 4.70128 41.1026 4.97656C40.7299 5.26204 40.5435 5.65968 40.5435 6.18986Z" fill="black"/>
<path d="M57.5968 6.18986V9.25877C57.5968 9.77875 57.7832 10.1866 58.1559 10.4619C58.5287 10.7372 59.036 10.8799 59.6676 10.8799C60.2992 10.8799 60.8065 10.7371 61.1792 10.4517C61.552 10.1662 61.7383 9.75835 61.7383 9.23837V6.22044C61.7383 5.70046 61.552 5.29263 61.1792 5.00715C60.8065 4.72167 60.2992 4.57893 59.6676 4.57893C59.036 4.57893 58.5287 4.72167 58.1559 4.99696C57.7832 5.26205 57.5968 5.66988 57.5968 6.18986ZM67.2154 6.51611V8.9223C67.2154 10.2783 66.8738 11.4101 66.2008 12.3175C65.5278 13.2249 64.6374 13.8672 63.5399 14.2547C62.4424 14.6319 61.1482 14.8256 59.6676 14.8256C58.1767 14.8256 56.8824 14.6319 55.7849 14.2547C54.6875 13.8774 53.8074 13.2249 53.124 12.3175C52.4511 11.4101 52.1094 10.2681 52.1094 8.88153V6.5569C52.1094 4.56874 52.8134 3.08016 54.2112 2.09117C55.6193 1.10218 57.4312 0.612793 59.6572 0.612793C61.8936 0.612793 63.7055 1.10218 65.1033 2.09117C66.5114 3.08016 67.2154 4.55853 67.2154 6.51611Z" fill="black"/>
<path d="M80.4455 0.634766H84.1625C84.3075 0.634766 84.4421 0.685748 84.5456 0.797901C84.6491 0.910054 84.7113 1.03241 84.7113 1.18534V14.2664C84.7113 14.4194 84.6595 14.5417 84.5456 14.6539C84.4421 14.766 84.3075 14.817 84.1625 14.817H80.4869C80.342 14.817 80.2074 14.766 80.1038 14.6539C80.0003 14.5417 79.9382 14.4194 79.9382 14.2664V7.98588L78.4576 10.9019C78.3748 11.065 78.2505 11.1873 78.0952 11.2791C77.9296 11.3709 77.7743 11.4116 77.6086 11.4116H76.2316C76.0038 11.4116 75.8174 11.3505 75.6621 11.2281C75.5171 11.1058 75.424 10.9936 75.3826 10.9019L73.902 7.98588V14.2664C73.902 14.4194 73.8502 14.5417 73.7363 14.6539C73.6328 14.766 73.4982 14.817 73.3532 14.817H69.6777C69.5327 14.817 69.3981 14.766 69.2946 14.6539C69.191 14.5417 69.1289 14.4194 69.1289 14.2664V1.18534C69.1289 1.03241 69.1807 0.910054 69.2946 0.797901C69.3981 0.685748 69.5327 0.634766 69.6777 0.634766H73.3946C73.7777 0.634766 74.0676 0.818297 74.2643 1.18534L76.9253 6.0487L79.5862 1.18534C79.7829 0.818297 80.0728 0.634766 80.4455 0.634766Z" fill="black"/>
<path d="M9.32625 24.6954H15.2072C15.3521 24.6954 15.4867 24.7464 15.5902 24.8585C15.6938 24.9707 15.7559 25.093 15.7559 25.246V27.3972C15.7559 29.4466 15.0519 30.976 13.6541 31.9649C12.2564 32.9539 10.403 33.4535 8.10451 33.4535C5.80599 33.4535 3.95268 32.9743 2.55493 32.0057C1.15718 31.0371 0.453125 29.5383 0.453125 27.5094V25.1746C0.453125 24.1652 0.649845 23.268 1.05364 22.4829C1.45743 21.708 2.00618 21.0861 2.73094 20.6069C4.13905 19.6893 5.93024 19.2305 8.10451 19.2305C9.19165 19.2305 10.1753 19.3528 11.076 19.5873C11.9768 19.832 12.6912 20.1277 13.2296 20.4845C13.768 20.8414 14.2236 21.2288 14.5963 21.6469C15.2589 22.3707 15.5902 23.0131 15.5902 23.5738C15.5902 23.6962 15.5488 23.788 15.4556 23.8695C15.3728 23.9511 15.2589 24.0021 15.145 24.0021H10.5583C10.2891 24.0021 10.0924 23.9409 9.96818 23.8185C9.54368 23.3903 8.97423 23.1762 8.24947 23.1762C7.52471 23.1762 6.95525 23.3088 6.5411 23.5738C6.12696 23.8389 5.91988 24.1856 5.91988 24.6036V27.8561C5.91988 28.3659 6.12696 28.7635 6.53075 29.049C6.93455 29.3344 7.504 29.4772 8.24947 29.4772C8.98458 29.4772 9.55404 29.3344 9.95783 29.0388C10.3616 28.7533 10.5583 28.4066 10.5791 28.0192H9.3159C9.17095 28.0192 9.03635 27.9682 8.93281 27.8561C8.82928 27.7439 8.76715 27.6216 8.76715 27.4686V25.2256C8.76715 25.0726 8.81892 24.9503 8.93281 24.8381C9.0467 24.7464 9.1813 24.6954 9.32625 24.6954Z" fill="black"/>
<path d="M23.8625 23.0132V25.1645H26.3991C26.6994 25.1645 26.9272 25.0625 27.0928 24.8688C27.2585 24.6751 27.3413 24.4304 27.3413 24.1245C27.3413 23.8288 27.2585 23.5638 27.1032 23.3497C26.9479 23.1254 26.7097 23.0132 26.3991 23.0132H23.8625ZM33.2119 32.8011C33.2429 32.852 33.2533 32.9336 33.2533 33.0254C33.2533 33.1171 33.2119 33.2089 33.1187 33.3007C33.0359 33.3924 32.922 33.4332 32.8081 33.4332H28.2007C27.7969 33.4332 27.507 33.2701 27.3517 32.9234L25.5605 28.9165H23.8521V32.8826C23.8521 33.0356 23.8003 33.1579 23.6865 33.2701C23.5829 33.3822 23.4483 33.4332 23.3034 33.4332H18.9237C18.7788 33.4332 18.6442 33.3822 18.5407 33.2701C18.4371 33.1579 18.375 33.0356 18.375 32.8826V19.8015C18.375 19.6486 18.4268 19.5263 18.5407 19.4141C18.6442 19.3122 18.7788 19.251 18.9237 19.251H26.8236C28.6769 19.251 30.1472 19.6894 31.224 20.5662C32.3111 21.443 32.8495 22.636 32.8495 24.1449C32.8495 25.9801 32.1351 27.3158 30.7166 28.1314L33.2119 32.8011Z" fill="black"/>
<path d="M40.3339 24.8075V27.8764C40.3339 28.3964 40.5203 28.8043 40.893 29.0795C41.2658 29.365 41.7731 29.4976 42.4047 29.4976C43.0363 29.4976 43.5436 29.3548 43.9163 29.0694C44.2891 28.7839 44.4754 28.376 44.4754 27.8561V24.8279C44.4754 24.3079 44.2891 23.9001 43.9163 23.6146C43.5436 23.3292 43.0363 23.1762 42.4047 23.1762C41.7731 23.1762 41.2658 23.319 40.893 23.5942C40.5203 23.8797 40.3339 24.2774 40.3339 24.8075ZM49.9629 25.1338V27.54C49.9629 28.896 49.6212 30.0277 48.9482 30.9352C48.2752 31.8426 47.3848 32.4849 46.2873 32.8724C45.1898 33.2496 43.8956 33.4433 42.415 33.4433C40.9345 33.4433 39.6299 33.2496 38.5428 32.8724C37.4453 32.4951 36.5652 31.8426 35.8819 30.9352C35.2089 30.0277 34.8672 28.8858 34.8672 27.4992V25.1746C34.8672 23.1864 35.5609 21.6978 36.969 20.7088C38.3667 19.7199 40.189 19.2305 42.415 19.2305C44.6514 19.2305 46.4633 19.7199 47.8611 20.7088C49.2588 21.6978 49.9629 23.1762 49.9629 25.1338Z" fill="black"/>
<path d="M65.0732 31.9854C63.7375 32.954 61.936 33.4434 59.6685 33.4434C57.3907 33.4434 55.5892 32.954 54.2639 31.9854C52.9283 31.0066 52.2656 29.4875 52.2656 27.4279V19.7913C52.2656 19.6486 52.3174 19.5161 52.4313 19.4141C52.5348 19.3122 52.6694 19.251 52.8144 19.251H57.0594C57.2043 19.251 57.3389 19.302 57.4425 19.4141C57.546 19.5263 57.6081 19.6486 57.6081 19.7913V27.7134C57.6081 28.2538 57.7945 28.6718 58.1672 28.9675C58.54 29.2632 59.0473 29.4059 59.6789 29.4059C60.3105 29.4059 60.8178 29.2632 61.1905 28.9675C61.5633 28.682 61.7496 28.2538 61.7496 27.7134V19.7913C61.7496 19.6486 61.8014 19.5263 61.9153 19.4141C62.0188 19.3122 62.1534 19.251 62.2984 19.251H66.5434C66.6884 19.251 66.823 19.302 66.9265 19.4141C67.0404 19.5263 67.0921 19.6486 67.0921 19.7913V27.4279C67.0714 29.4977 66.4088 31.0168 65.0732 31.9854Z" fill="black"/>
<path d="M76.3234 23.0132V25.2359H78.9015C79.2121 25.2359 79.4709 25.1441 79.6573 24.9504C79.854 24.7567 79.9472 24.5018 79.9472 24.1653C79.9472 23.8288 79.854 23.5536 79.6677 23.3395C79.4813 23.1253 79.2224 23.0132 78.9015 23.0132H76.3234ZM71.395 19.251H78.9843C80.9101 19.251 82.4321 19.72 83.5503 20.6478C84.6685 21.5756 85.2379 22.7787 85.2379 24.2265C85.2379 25.6845 84.7617 26.8468 83.8195 27.7032C82.8669 28.5597 81.2621 28.9879 78.9843 28.9879H76.3027V32.8725C76.3027 33.0152 76.2509 33.1477 76.137 33.2599C76.0335 33.372 75.8989 33.423 75.7539 33.423H71.3847C71.2397 33.423 71.1051 33.372 71.0016 33.2599C70.8877 33.1477 70.8359 33.0254 70.8359 32.8725V19.7913C70.8359 19.6384 70.8877 19.5161 71.0016 19.4039C71.1155 19.3019 71.2501 19.251 71.395 19.251Z" fill="black"/>
</svg>
