<svg width="87" height="31" viewBox="0 0 87 31" fill="none" xmlns="http://www.w3.org/2000/svg">
<path d="M0.849745 19.0819C2.83996 20.4568 4.99989 20.51 5.80214 20.4416C6.82039 20.3732 7.69978 19.6592 7.5995 18.7324C7.53007 17.7601 6.77411 17.3347 5.80214 17.0005C3.08682 16.0282 0.656895 14.6684 0.656895 11.8198C0.656895 8.97122 2.67798 6.79109 5.57073 6.65435C6.46556 6.60878 7.66121 6.60878 9.89056 7.36841L9.45088 10.6424C7.5378 9.88277 6.44242 9.90556 5.91015 9.92835C4.6682 9.99671 4.11277 10.8779 4.1822 11.8274C4.27477 12.7769 5.12332 13.2023 6.11842 13.5366C8.81061 14.5089 11.1402 16.0282 11.1402 18.74C11.1402 21.5582 9.14229 23.7232 5.88699 23.8827C4.91502 23.9511 2.75511 23.8295 0.402344 22.6445L0.849745 19.0819Z" fill="black"/>
<path d="M17.3982 23.7468L17.4136 10.1799L13.0938 10.1723V6.80713L25.2125 6.81473V10.1875H20.8849L20.8772 23.7544L17.3982 23.7468Z" fill="black"/>
<path d="M37.1301 5.84326H37.6238L44.5355 23.7173L40.6322 23.7401L35.3867 10.0364L37.1301 5.84326Z" fill="black"/>
<path d="M49.3435 23.7315L49.3589 10.1569H45.0391L45.0468 6.78418L57.1578 6.79938V10.1645H52.8379L52.8225 23.7315H49.3435Z" fill="black"/>
<path d="M77.8435 10.0062C70.9009 9.99865 70.8855 20.4815 77.8281 20.4891C84.7784 20.4967 84.7861 10.0138 77.8435 10.0062ZM77.8512 6.51954C89.7925 6.53473 89.777 24.0138 77.8358 24.0062C65.8791 23.991 65.9023 6.50435 77.8512 6.51954Z" fill="black"/>
<path d="M64.977 13.9498V6.82449L62.2617 6.81689C63.1488 9.15655 64.0668 11.5722 64.977 13.9498Z" fill="black"/>
<path d="M67.3814 30.0055L56.0804 0.577416L55.6484 0.569824L61.4339 15.6257L61.4262 23.7385L64.5504 23.7461L66.9571 30.0055H67.3814Z" fill="black"/>
<path d="M31.7673 18.7554L33.2098 15.2839L34.552 18.7554H31.7673ZM39.3115 30.0055L27.9566 0.569824H27.5555L31.3199 10.369L25.7812 23.7537L29.7154 23.7613L30.4559 21.9382L35.7862 21.9458L38.8949 30.0131H39.3115V30.0055Z" fill="black"/>
</svg>
