<svg width="122" height="14" viewBox="0 0 122 14" fill="none" xmlns="http://www.w3.org/2000/svg">
<path d="M16.1945 1.13574H22.2497C24.7648 1.13574 25.3672 2.42613 25.3672 3.55001C25.4517 4.92365 24.5852 6.22445 23.2959 6.82801C24.1625 7.08817 24.6803 7.9519 24.6803 8.89888C24.6803 9.9291 24.247 13.4673 18.8787 13.4673H13.6055L16.1945 1.13574ZM16.5432 11.386H19.6607C20.8759 11.4692 21.9115 10.6055 22.0806 9.49204V9.23188C22.0806 8.4514 21.3832 8.10799 20.5272 8.10799H17.3252L16.5432 11.386ZM17.7585 5.96429H20.7914C21.9116 5.96429 22.9577 5.44397 22.9577 4.23684C22.9577 3.55002 22.3554 3.28986 21.3198 3.28986H18.382L17.7585 5.96429Z" fill="black"/>
<path d="M29.175 1.13574H34.6278C37.7452 1.13574 38.6118 3.20661 38.6118 5.18382C38.6118 8.02477 36.7942 13.4569 31.9543 13.4569H26.5859L29.175 1.13574ZM29.5237 11.386H32.0282C34.6278 11.386 35.9171 7.94152 35.9171 5.61049C35.9171 3.53962 34.6173 3.27945 33.7507 3.27945H31.2357L29.5237 11.386Z" fill="black"/>
<path d="M47.8674 7.1685C48.4698 5.01437 50.2028 4.23389 52.1895 4.23389C53.743 4.23389 54.9583 4.75421 54.9583 6.30476C54.9583 6.56493 54.9583 6.82508 54.8737 7.07484L53.8381 11.9867C53.8381 12.1636 53.7536 12.3301 53.7536 12.4133C53.7536 12.6735 53.8381 12.84 54.1023 12.84C54.3664 12.84 54.5356 12.7568 54.7892 12.6631L54.6201 13.5268C54.3665 13.6101 54.0178 13.7037 53.7536 13.7037C53.0667 13.7037 52.7179 13.5268 52.7179 12.7568V12.3301C51.7668 13.2771 50.467 13.7974 49.0826 13.7974C47.6983 13.7974 46.5781 13.1106 46.5781 11.8098C46.5781 10.2592 47.6138 8.87515 50.3825 8.44849L52.4537 8.18833C53.669 8.01142 53.9226 7.40784 53.9226 6.55452C53.9226 5.70119 53.4048 5.18087 52.0205 5.18087C50.6361 5.00396 49.3363 5.86769 48.9981 7.25175L47.8674 7.1685ZM50.7207 9.22897C48.8185 9.31222 47.7828 10.2592 47.7828 11.4664C47.7828 12.3301 48.5648 12.7568 49.4314 12.7568C51.0799 12.7568 52.8976 11.9763 53.2358 10.0823L53.5 8.70865C52.6228 9.06247 51.6718 9.22897 50.7207 9.22897Z" fill="black"/>
<path d="M58.7637 6.13023C59.366 4.83984 60.6659 4.15302 62.1347 4.23627L61.8706 5.36015C59.5351 5.36015 58.584 7.08762 58.1508 9.06483L57.2842 13.4563H56.1641L58.0662 4.40277H59.1019L58.7637 6.13023Z" fill="black"/>
<path d="M68.9685 7.33815C69.0531 6.21426 68.1865 5.26729 67.0664 5.18404H66.8022C64.118 5.18404 62.8182 8.28513 62.8182 10.1895C62.8182 11.5735 63.4206 12.7807 65.1536 12.7807C66.6225 12.7807 68.0069 11.7504 68.4401 10.3664H69.5603C68.958 12.354 67.0558 13.7276 64.974 13.7276C62.6386 13.7276 61.6875 12.3436 61.6875 10.4496C61.6875 7.4318 63.7587 4.15381 66.9607 4.15381C69.0425 4.15381 69.9936 5.10078 69.9936 7.2549L68.9685 7.33815Z" fill="black"/>
<path d="M73.658 5.7033C74.5245 4.83958 75.6447 4.23601 76.86 4.23601C78.5085 4.23601 79.4597 5.00608 79.4597 6.56703C79.4597 6.91044 79.4596 7.25385 79.3751 7.59726L78.1598 13.456H77.1242L78.3395 7.59726C78.424 7.3371 78.424 6.99369 78.424 6.73353C78.424 5.7033 77.8216 5.18298 76.5218 5.18298C74.6196 5.18298 73.4889 6.81679 73.0557 8.54424L72.02 13.456H70.9844L73.6685 0.958008H74.7042L73.658 5.7033Z" fill="black"/>
<path d="M82.0434 13.456H81.0078L82.91 4.40251H83.9457L82.0434 13.456ZM83.3433 2.50855L83.692 0.958008H84.7277L84.379 2.50855H83.3433Z" fill="black"/>
<path d="M88.1869 13.5486C87.7536 13.6319 87.3204 13.7255 86.9717 13.7255C86.1051 13.7255 85.6719 13.4654 85.6719 12.6016C85.6719 12.3415 85.6718 12.175 85.7564 11.9148L87.1407 5.35881H85.8409L86.01 4.49509H87.3098L87.8276 1.99756H88.8632L88.3454 4.49509H89.9939L89.8249 5.35881H88.1764L86.8765 11.561C86.792 11.8212 86.792 12.0813 86.792 12.3415C86.792 12.6849 86.9611 12.8618 87.574 12.8618C87.8382 12.8618 88.1764 12.7786 88.4405 12.7786L88.1869 13.5486Z" fill="black"/>
<path d="M91.559 9.23154C91.4744 9.57495 91.4745 9.91836 91.4745 10.2618C91.4745 11.7291 92.2564 12.7593 93.8099 12.7593C95.1942 12.7593 96.4095 11.9788 97.0119 10.6884H98.1321C97.3501 12.4992 95.6275 13.7063 93.6303 13.7063C91.2948 13.7063 90.3438 12.4159 90.3438 10.5219C90.3438 7.33758 92.5946 4.22607 95.617 4.22607C97.6037 4.22607 98.7344 5.34997 98.7344 7.50409C98.7344 8.10766 98.6498 8.62797 98.5653 9.23154H91.559ZM97.6248 8.37822C97.7094 8.11806 97.7093 7.77465 97.7093 7.51449C97.7939 6.3906 97.0119 5.36037 95.8072 5.18346H95.3739C93.5563 5.18346 92.2565 6.65076 91.6541 8.36781H97.6248V8.37822Z" fill="black"/>
<path d="M107.402 7.33768C107.487 6.21379 106.62 5.26681 105.5 5.18355H105.236C102.552 5.18355 101.252 8.28467 101.252 10.189C101.252 11.5731 101.854 12.7802 103.587 12.7802C105.056 12.7802 106.441 11.75 106.874 10.366H107.994C107.392 12.3536 105.489 13.7272 103.408 13.7272C101.072 13.7272 100.121 12.3432 100.121 10.4492C100.121 7.43134 102.192 4.15332 105.394 4.15332C107.476 4.15332 108.427 5.1003 108.427 7.25443L107.402 7.33768Z" fill="black"/>
<path d="M112.418 13.5486C111.984 13.6319 111.551 13.7255 111.202 13.7255C110.336 13.7255 109.902 13.4654 109.902 12.6016C109.902 12.3415 109.902 12.175 109.987 11.9148L111.371 5.35881H110.071L110.241 4.49509H111.54L112.058 1.99756H113.094L112.576 4.49509H114.225L114.056 5.35881H112.407L111.107 11.561C111.022 11.8212 111.023 12.0813 111.023 12.3415C111.023 12.6849 111.192 12.8618 111.805 12.8618C112.069 12.8618 112.407 12.7786 112.671 12.7786L112.418 13.5486Z" fill="black"/>
<path d="M120.81 7.0774V6.73399C120.81 5.70377 120.028 5.18345 118.823 5.18345C117.619 5.18345 116.403 5.87027 116.403 6.99415C116.403 7.85787 117.439 8.11803 118.57 8.37819C119.869 8.7216 121.338 9.14826 121.338 10.5323C121.338 12.6032 119.352 13.7166 117.101 13.7166C115.199 13.7166 114.332 12.6864 114.332 11.2191V10.6988H115.368C115.368 12.2493 116.055 12.8529 117.619 12.8529C119.172 12.8529 120.218 11.9892 120.218 10.8757C120.218 10.0952 119.531 9.66857 117.883 9.40841C115.981 9.06501 115.283 8.37819 115.283 7.42081C115.283 5.61011 116.837 4.22607 119.003 4.22607C120.821 4.22607 121.856 4.91289 121.856 6.64034V7.06699H120.81V7.0774Z" fill="black"/>
<path d="M10.4079 1.1333L12.141 13.4648H9.37224L9.10805 10.8736H4.52165L3.13729 13.4648H0.453125L7.37494 1.1333H10.4079ZM5.64182 8.80276H8.92836L8.2415 3.97423L5.64182 8.80276Z" fill="black"/>
</svg>
