<svg width="102" height="24" viewBox="0 0 102 24" fill="none" xmlns="http://www.w3.org/2000/svg">
<path d="M99.4368 13.7239L97.3655 18.4067L95.2943 13.7239H92.8003V20.3944H94.6074V16.1693L96.6153 20.3944H98.0947L100.103 16.1693V20.3944H101.91V13.7239H99.4368ZM87.7701 13.5365C89.8308 13.5365 91.8704 14.7229 91.8704 17.0643C91.8704 19.4057 89.8308 20.5921 87.7701 20.5921C85.7095 20.5921 83.67 19.4057 83.67 17.0643C83.67 14.7229 85.7095 13.5365 87.7701 13.5365ZM87.7701 19.0103C88.8903 19.0103 89.9365 18.2923 89.9365 17.0747C89.9365 15.8468 88.8903 15.1287 87.7701 15.1287C86.65 15.1287 85.6038 15.8468 85.6038 17.0747C85.6038 18.2923 86.65 19.0103 87.7701 19.0103ZM44.982 15.212H47.2223V20.4152H49.1245V15.212H51.3648V13.7343H44.982V15.212ZM72.2358 13.5365C74.381 13.5365 75.8922 14.9206 75.8922 16.877V17.4701H70.1117C70.2385 18.49 71.0523 19.1456 72.1724 19.1456C73.1869 19.1456 73.6096 18.7501 74.0746 18.2298L75.5857 18.9062C74.8249 20.0509 73.7892 20.6025 72.1407 20.6025C70.0589 20.6025 68.2836 19.1872 68.2836 17.0747C68.2836 14.9518 70.0589 13.5365 72.2358 13.5365ZM74.1168 16.1798C73.9372 15.3473 73.2292 14.8373 72.1724 14.8373C71.1791 14.8373 70.4182 15.4305 70.1434 16.1798H74.1168ZM55.8137 13.5365C57.959 13.5365 59.4702 14.9206 59.4702 16.877V17.4701H53.7002C53.8165 18.49 54.6408 19.1456 55.7609 19.1456C56.7754 19.1456 57.1981 18.7501 57.6631 18.2298L59.1742 18.9062C58.4134 20.0509 57.3778 20.6025 55.7292 20.6025C53.6474 20.6025 51.8721 19.1872 51.8721 17.0747C51.8721 14.9518 53.6368 13.5365 55.8137 13.5365ZM57.7054 16.1798C57.5257 15.3473 56.8177 14.8373 55.7609 14.8373C54.7676 14.8373 54.0067 15.4305 53.732 16.1798H57.7054ZM61.2138 17.5118C61.1187 18.5316 60.8968 18.7605 60.5058 18.7605C60.2416 18.7605 60.1148 18.7293 59.9246 18.6877L59.9351 20.4152C59.9351 20.4152 60.1676 20.4776 60.6115 20.4776C62.2283 20.4776 62.8307 19.5514 62.9892 17.5638L63.1688 15.2328H65.314V20.3839H67.2162V13.7134H61.5308L61.2138 17.5118ZM40.9451 19.0103C39.7933 19.0103 38.9479 18.2715 38.9479 17.0747C38.9479 15.8884 39.825 15.1287 40.9451 15.1287C41.6215 15.1287 42.2133 15.4097 42.6888 16.0445L44.3162 15.212C43.7667 14.1713 42.5937 13.5365 40.9663 13.5365C38.8316 13.5365 37.0246 14.9414 37.0246 17.0643C37.0246 19.1976 38.7471 20.5921 40.9663 20.5921C42.5726 20.5921 43.6399 19.9469 44.4008 18.8022L42.8262 18.0321C42.3612 18.6045 41.8751 19.0103 40.9451 19.0103ZM31.9838 13.5365C34.0445 13.5365 36.0841 14.7229 36.0841 17.0643C36.0841 19.4057 34.0445 20.5921 31.9838 20.5921C29.9232 20.5921 27.8836 19.4057 27.8836 17.0643C27.8836 14.7229 29.9232 13.5365 31.9838 13.5365ZM31.9838 19.0103C33.104 19.0103 34.1502 18.2923 34.1502 17.0747C34.1502 15.8468 33.104 15.1287 31.9838 15.1287C30.8637 15.1287 29.8175 15.8468 29.8175 17.0747C29.8175 18.2923 30.8637 19.0103 31.9838 19.0103ZM23.5192 10.9766C25.9075 10.9766 27.482 12.0692 27.482 14.0464C27.482 16.0237 25.9075 17.1163 23.5192 17.1163H20.7082V20.4048H18.7109V10.9766H23.5192ZM23.4558 15.5346C24.8507 15.5346 25.4848 14.9414 25.4848 14.0568C25.4848 13.1723 24.8507 12.5791 23.4558 12.5791H20.7082V15.545H23.4558V15.5346ZM80.4468 16.825L83.987 20.4048H81.6938L78.9568 17.6471V20.4048H77.0546V13.7239H78.9568V16.1485L81.6515 13.7239H83.9024L80.4468 16.825Z" fill="black"/>
<path d="M2.29818 23.1308C0.808148 23.1308 0.565052 21.8404 1.19911 21.2784L5.7749 17.2304L12.4113 23.1412H2.29818V23.1308ZM5.90171 17.1159L15.8458 8.30171L6.73653 0.205566L1.57953 4.79477C0.036656 6.16841 0.248062 7.06336 0.248062 8.90528V21.497C0.248062 22.4648 1.15688 23.3077 2.29818 23.3077H12.8341L12.5382 23.0475L5.90171 17.1159Z" fill="black"/>
<path d="M12.423 23.1299H2.30991C0.819884 23.1299 0.587432 21.8395 1.22148 21.2776L5.79725 17.2295C5.78668 17.2295 12.423 23.1299 12.423 23.1299Z" fill="black"/>
</svg>
