<svg width="132" height="18" viewBox="0 0 132 18" fill="none" xmlns="http://www.w3.org/2000/svg">
<path d="M82.3124 14.0848V11.389L89.9751 4.78799L87.5062 2.63385L78.7433 10.1796V15.9744C78.7433 16.6421 79.1527 16.9192 79.7027 16.9192H98.4566V13.9588H82.2996V14.0848H82.3124ZM76.2999 15.9744L66.0275 1.81502C65.8868 1.67645 65.7589 1.55048 65.7589 1.41191C65.6182 1.27334 65.6182 1.27334 65.4903 1.14736C65.3496 1.00879 65.2216 1.00879 65.0809 1.00879H64.5308H62.7527C62.3433 1.00879 61.9339 1.00879 61.7932 1.14736C61.6525 1.28594 61.3839 1.55047 61.1152 1.82761L50.8428 15.987C50.7021 16.1256 50.7021 16.2515 50.7021 16.3901C50.7021 16.5287 50.7021 16.7932 50.8428 16.7932C50.9835 16.9318 51.1115 17.0578 51.3929 17.0578H52.9024H53.4525C53.5932 17.0578 53.7212 17.0578 53.8619 16.9192C54.0026 16.9192 54.1305 16.7806 54.1305 16.6547C54.2712 16.5161 54.2712 16.3901 54.3991 16.2515L63.4307 3.71721L72.3343 16.1256C72.6029 16.3901 72.7436 16.6673 73.025 16.8058C73.1658 16.9444 73.5751 16.9444 73.9845 16.9444H75.7627C76.0313 16.9444 76.172 16.9444 76.3127 16.6799C76.4534 16.5413 76.4535 16.4153 76.4535 16.2767C76.5686 16.2389 76.4278 16.1004 76.2999 15.9744ZM113.667 16.9192C113.808 16.7806 114.076 16.6547 114.358 16.5161L128.186 3.98176V16.113C128.186 16.7932 128.596 17.0578 129.146 17.0578H130.515C131.205 17.0578 131.474 16.6547 131.474 16.113V2.07956C131.474 1.39931 131.065 1.13476 130.515 1.13476H127.227C126.818 1.13476 126.536 1.13477 126.408 1.27334C126.268 1.41191 125.999 1.53788 125.717 1.67645L111.889 14.2108V2.07956C111.889 1.39931 111.479 1.13476 110.929 1.13476H109.56C108.87 1.13476 108.601 1.53788 108.601 2.07956V16.1004C108.601 16.7806 109.01 17.0452 109.56 17.0452H112.848C113.258 17.0452 113.526 17.0452 113.667 16.9192ZM45.6363 9.09627C45.6363 5.72019 43.8581 3.96916 40.5704 3.96916H34.1358C30.7202 3.96916 29.07 5.72019 29.07 9.09627C29.07 12.4724 30.8481 14.2234 34.1358 14.2234H40.5704C43.8453 14.0848 45.6363 12.4598 45.6363 9.09627ZM49.1926 9.09627C49.1926 11.7921 48.5146 13.6817 47.1458 15.0296C45.777 16.3775 43.7174 17.0452 41.1205 17.0452H33.4578C30.7202 17.0452 28.8013 16.3775 27.4325 15.0296C26.0637 13.6817 25.3729 11.6535 25.3729 9.09627C25.3729 6.53901 26.0637 4.51085 27.4325 3.16293C28.8013 1.81502 30.8609 1.13476 33.4578 1.13476H41.1205C43.8581 1.13476 45.777 1.81502 47.1458 3.16293C48.6425 4.37228 49.1926 6.40044 49.1926 9.09627ZM20.3071 17.0452C20.1664 17.0452 20.0384 17.0452 19.8977 16.9066C19.757 16.9066 19.6291 16.768 19.4884 16.6421C19.3476 16.5035 19.2197 16.3775 19.079 16.2389L11.5442 10.3056H3.88151V15.9618C3.88151 16.6295 3.47215 16.9066 2.92207 16.9066H1.41256C0.73456 16.9066 0.453125 16.5035 0.453125 15.9618V1.95359C0.453125 1.27334 0.721768 1.00879 1.41256 1.00879H2.92207C3.61287 1.00879 3.88151 1.41191 3.88151 1.95359V7.34524H11.5442L18.7976 1.68905C18.9383 1.55048 19.0662 1.42451 19.207 1.28594C19.3477 1.14737 19.4756 1.14736 19.6163 1.02138C19.757 1.02138 19.8849 1.02138 20.0257 0.882812H20.5757H22.6225C22.8912 0.882812 23.0319 0.882813 23.0319 1.02138C23.1854 1.14736 23.1854 1.27334 23.1854 1.41191V1.67645C23.1854 1.81502 23.0447 1.94099 22.9168 2.07956L14.4353 8.68056L23.3261 15.6847C23.4668 15.8232 23.5948 16.0878 23.5948 16.2263C23.5948 16.3649 23.5948 16.6295 23.454 16.6295C23.3133 16.6295 23.1854 16.768 23.0447 16.768H20.8572C20.5757 17.0452 20.4478 17.0452 20.3071 17.0452Z" fill="black"/>
<path d="M100.247 17.0462V11.5159L89.5656 2.34509C89.4249 2.34509 89.4248 2.20652 89.2969 2.08054C89.1562 1.94197 89.2969 1.816 89.2969 1.67743C89.2969 1.53886 89.2969 1.27431 89.4377 1.27431C89.5784 1.13574 89.7063 1.13574 89.9877 1.13574H92.1752H92.7253C92.866 1.13574 92.9939 1.13574 93.1347 1.27431C93.2754 1.27431 93.4033 1.41288 93.544 1.53886C93.6848 1.67743 93.8127 1.8034 93.9534 1.94197L103.804 10.4326V16.2273C103.804 16.769 103.394 17.1721 102.844 17.1721L100.247 17.0462Z" fill="black"/>
</svg>
