<svg width="122" height="13" viewBox="0 0 122 13" fill="none" xmlns="http://www.w3.org/2000/svg">
<path d="M7.63203 1.05127H6.04688L8.20272 4.71433H10.1049L10.7812 3.72571L9.21718 1.05127H7.63203Z" fill="black"/>
<path d="M16.001 2.99725L14.8491 1.05127H12.6933H12.091H9.91406L12.091 4.71431V10.4898H10.9602V12.5919H17.7129V10.4898H16.001V2.99725Z" fill="black"/>
<path d="M17.7116 4.69349H19.3178V1.05127H15.5664L17.7116 4.69349Z" fill="black"/>
<path d="M26.1563 0.862793H25.5117C25.3743 0.862793 25.1523 0.88361 25.1523 0.88361L26.6423 3.43316C27.0756 3.73495 28.0584 4.6299 28.0584 6.88808C28.0584 10.2389 26.2091 10.5823 26.2091 10.5823L27.53 12.8093C30.3938 12.1953 31.9684 9.81226 31.9684 6.85686C31.979 3.49561 29.8655 0.977263 26.1563 0.862793Z" fill="black"/>
<path d="M23.6483 6.90967C23.6483 3.61085 25.4025 3.40271 25.7301 3.40271H25.8993L24.4621 0.978027C21.4608 1.50875 19.7383 3.8606 19.7383 6.88885C19.7383 10.2605 21.8729 12.8517 25.5399 12.9662H26.1845L26.9032 12.9245L25.5294 10.5935C25.2757 10.5415 23.6483 9.98995 23.6483 6.90967Z" fill="black"/>
<path d="M4.23108 3.98363C4.23108 3.20315 5.161 3.16153 5.72109 3.16153H6.56649L5.24553 0.93457C5.12929 0.93457 4.50582 0.955387 4.41071 0.955387C2.12809 1.16351 0.542969 2.48512 0.542969 4.48314C0.542969 8.58325 5.64711 7.76114 5.64711 9.499C5.64711 10.446 4.56923 10.4356 4.15709 10.4148L5.57313 12.7978C6.65103 12.7978 9.72628 12.6105 9.72628 8.9995C9.72628 5.14915 4.23108 5.92962 4.23108 3.98363Z" fill="black"/>
<path d="M121.51 4.69349V1.05127H117.367L119.544 4.69349H121.51Z" fill="black"/>
<path d="M0.402344 8.9707V12.6026H4.7456L2.61093 8.9707H0.402344Z" fill="black"/>
<path d="M36.9966 8.5645L33.9319 3.36133V10.4897H32.7695V12.6022H38.0322V10.4897H36.9966V8.5645Z" fill="black"/>
<path d="M109.605 4.69349V1.05127H105.473L107.639 4.69349H109.605Z" fill="black"/>
<path d="M56.3702 4.69349V1.05127H52.2383L54.4047 4.69349H56.3702Z" fill="black"/>
<path d="M86.0644 4.69349V1.05127H81.9219L84.0988 4.69349H86.0644Z" fill="black"/>
<path d="M119.804 8.9707L117.648 12.6026H121.791V8.9707H119.804Z" fill="black"/>
<path d="M93.3912 1.05075C93.053 1.02994 92.0491 1.05075 91.7109 1.05075L92.9051 3.06959C94.226 3.06959 95.2511 4.14144 95.2511 6.86791C95.2511 9.43829 94.4057 10.5518 93.0213 10.6246L94.152 12.529C97.5125 12.1648 99.1822 10.3332 99.1822 6.8471C99.1716 3.24649 97.1321 1.34213 93.3912 1.05075Z" fill="black"/>
<path d="M82.207 12.6026H86.339V8.9707H84.3628L82.207 12.6026Z" fill="black"/>
<path d="M92.2315 3.17416L90.9845 1.05127H87.1484V3.17416H88.3214V10.4898H87.1484V12.6023H93.4784L92.2315 10.4898V3.17416Z" fill="black"/>
<path d="M103.831 6.86888C103.831 4.25688 104.666 3.24746 106.039 3.17462L104.761 1.02051C101.59 1.47839 99.9102 3.4556 99.9102 6.85848C99.9102 11.2604 102.647 12.7485 105.194 12.7485C106.399 12.7485 107.424 12.4051 107.424 12.4051L106.23 10.4071C104.761 10.3966 103.831 9.55372 103.831 6.86888Z" fill="black"/>
<path d="M105.965 8.7918H106.831V10.2175L108.247 12.6005H110.361V8.7918V6.77295H105.965V8.7918Z" fill="black"/>
<path d="M116.287 10.4898V8.05476H118.781V5.4948H116.287V3.17416H117.915L116.689 1.05127H111.215V3.17416H112.388V10.4898H111.215V12.6023H116.953L118.179 10.4898H116.287Z" fill="black"/>
<path d="M80.8414 10.4898V8.05476H83.4304V5.4948H80.8414V3.17416H82.4688L81.2429 1.05127H74.7227L75.9697 3.17416H76.9313V10.4898H75.9908L74.7438 12.6023H81.5071L82.7752 10.4898H80.8414Z" fill="black"/>
<path d="M40.1289 3.17416H41.2808V5.30746L44.3137 10.4378V3.17416H45.4655V1.05127H40.1289V3.17416Z" fill="black"/>
<path d="M51.1612 10.4898V8.05476H53.7503V5.4948H51.1612V3.17416H52.7886L51.5628 1.05127H46.0781V3.17416H47.2511V10.4898H46.0781V12.6023H51.8058L53.0739 10.4898H51.1612Z" fill="black"/>
<path d="M33.9319 1.05127H32.7695V3.17416H34.5237L40.0929 12.6023H44.3199V11.6762L38.0956 1.05127H33.9319Z" fill="black"/>
<path d="M73.9303 10.4898V3.17416H75.2512L74.0043 1.05127H68.8896V3.17416H70.0626V5.4948H67.0719V3.17416H68.2661V1.05127H67.0719H63.2042H62.0312V3.17416H63.2042V10.4898H62.0312V12.6023H68.2661V10.4898H67.0719V8.05476H70.0626V10.4898H68.8896V12.6023H74.0254L75.2935 10.4898H73.9303Z" fill="black"/>
<path d="M52.5234 12.6026H56.6553V8.9707H54.6792L52.5234 12.6026Z" fill="black"/>
</svg>
