<svg width="81" height="40" viewBox="0 0 81 40" fill="none" xmlns="http://www.w3.org/2000/svg">
<path d="M80.9205 30.0986V39.4149H76.1424V37.661C77.6457 37.661 78.2011 37.4724 78.2011 36.1806V35.6243C78.2011 34.4267 77.7319 34.1438 76.3243 34.1438H76.1328V31.9279V30.1741H80.9109V30.0986H80.9205Z" fill="black"/>
<path d="M80.7284 12.2954V25.8549H78.1047V17.3684H78.0185L76.6109 25.8549H74.5521L73.1445 17.3684L74.7341 17.095L75.5767 21.8003L77.262 12.2954H80.7284Z" fill="black"/>
<path d="M66.8733 30.0986V31.8525V32.8614H65.9349V37.661H64.5273V39.4149H76.1425V37.661H74.7349V31.8525H80.9206V30.0986H66.8733Z" fill="black"/>
<path d="M73.7963 12.2954L74.7348 17.095L73.1452 17.3684H73.0495V25.8549H70.4258V12.2954H73.7963Z" fill="black"/>
<path d="M66.031 23.6419V14.42C66.031 14.1465 65.8395 13.9579 65.6575 13.9579C65.466 13.9579 65.2841 14.0522 65.2841 14.42V23.6419C65.2841 24.0097 65.5618 24.104 65.6575 24.104C65.8395 24.104 66.031 23.9154 66.031 23.6419ZM68.6547 14.6934V23.3591C68.6547 24.2831 68.5589 25.7541 66.6917 25.7541H64.5372C62.6604 25.7541 62.5742 24.2737 62.5742 23.3591V14.6934C62.5742 13.7693 62.67 12.2983 64.5372 12.2983H66.6917C68.5589 12.2983 68.6547 13.7788 68.6547 14.6934Z" fill="black"/>
<path d="M66.8697 30.1017V31.8556H63.5949V32.874H64.5333V37.6735V39.4274H52.5352V37.6735H53.847V37.1172C55.1589 37.1172 55.81 36.8437 55.81 35.6368V33.7886C55.81 32.5911 55.245 32.3082 53.847 32.3082V31.8462V30.0923H66.8697V30.1017Z" fill="black"/>
<path d="M58.0661 19.0312V14.5993C58.0661 14.1373 57.8746 13.9581 57.5969 13.9581H57.2235V19.7667H57.5969C57.8842 19.7667 58.0661 19.4932 58.0661 19.0312ZM60.7856 14.6936V18.7483C60.7856 19.6724 60.6898 21.1434 58.8226 21.1434H57.2331V25.7544H54.6094V12.1948H58.8226C60.6037 12.2985 60.7856 13.779 60.7856 14.6936Z" fill="black"/>
<path d="M53.8524 30.1006V31.8545H52.5406V32.3165C51.133 32.3165 50.5776 32.59 50.5776 33.7969V35.6451C50.5776 36.8427 51.2287 37.1256 52.5406 37.1256V37.6819V39.4358H39.3359V37.6819H42.6108V36.6635H41.2989V35.0982H42.4193V34.1741H41.2989V32.8823H42.515V31.8639V30.11H53.8524V30.1006Z" fill="black"/>
<path d="M52.8268 12.2954V25.8549H50.2031V13.955V12.2954H52.8268Z" fill="black"/>
<path d="M50.2085 12.2954V13.955H49.3659V25.8549H46.7422V12.2954H50.2085Z" fill="black"/>
<path d="M44.9536 20.6895V23.4523C44.9536 24.3764 44.8578 25.8474 42.9906 25.8474H40.7403C38.8635 25.8474 38.7773 24.3669 38.7773 23.4523V21.1421H41.401V23.7257C41.401 24.0935 41.6787 24.1878 41.7745 24.1878C42.0522 24.1878 42.1479 23.9992 42.1479 23.7257V20.5952C42.1479 20.1331 42.0522 19.6711 41.1138 19.6711H39.9934V18.2001H41.1138C41.8607 18.2001 42.1479 18.0115 42.1479 17.1817V14.5038C42.1479 14.2303 41.9564 14.0417 41.7745 14.0417C41.583 14.0417 41.401 14.136 41.401 14.5038V16.7197H38.7773V14.7867C38.7773 13.8626 38.8731 12.3916 40.7403 12.3916H42.9906C44.8674 12.3916 44.9536 13.872 44.9536 14.7867V17.0026C44.9536 18.483 43.9194 18.8507 43.1725 18.8507V18.945C44.9536 18.8507 44.9536 20.2274 44.9536 20.6895Z" fill="black"/>
<path d="M30.1629 34.059V31.8431H31.5705V37.6516H30.1629V35.0679H29.416V37.6516H28.0084V31.8431H29.416V34.059H30.1629ZM25.4805 30.0986V39.4149H39.8054V37.661V31.8525H43.0803V30.0986H25.4805Z" fill="black"/>
<path d="M34.7524 20.7819L34.2832 13.955H34.0917L33.6225 20.7819H34.7524ZM36.2558 12.2954L37.6634 25.8549H35.0397L34.762 22.2623H33.5459L33.2682 25.8549H30.6445L32.0521 12.2954H36.2558Z" fill="black"/>
<path d="M30.634 12.2954V13.955H28.2018V25.8549H25.5781V12.7575V12.2954H30.634Z" fill="black"/>
<path d="M23.8909 25.7617V35.078C21.3629 37.7559 17.8008 39.4155 13.8653 39.4155H13.7695L13.8653 37.7559C15.8283 37.7559 17.8008 37.0204 19.2946 35.54C20.7884 34.0596 20.7884 31.6645 19.2946 30.1935C17.7912 28.7131 15.3591 28.7131 13.8653 30.1935V25.9503H18.835H20.2426H23.8909V25.7617Z" fill="black"/>
<path d="M18.8225 24.1977C19.2917 23.3679 19.9428 21.7083 19.9428 19.4924C19.8471 17.2765 19.1002 15.6169 18.8225 15.2492C18.5448 15.6169 17.7022 17.5594 17.7022 19.6716C17.7022 21.8875 18.3533 23.3679 18.8225 24.1977ZM21.8196 13.4953C21.8196 12.1092 21.7239 9.71411 20.977 7.31904C20.3259 4.82967 18.9183 2.51946 18.7268 2.24601C18.5352 2.51946 17.5107 4.46193 16.5723 7.41334C16.2946 8.33742 15.8254 10.2704 15.8254 12.1186C15.7296 14.4194 16.0169 16.6353 16.1988 17.2859C16.1988 16.5504 16.1988 14.0611 16.668 11.9395C17.1372 9.81785 18.0756 7.42276 18.7268 6.22522C19.5694 7.51706 20.5078 10.2799 20.8812 11.9395C21.2547 13.599 21.4462 15.7207 21.3504 17.1916C21.6377 16.3524 21.7335 14.9757 21.8196 13.4953ZM22.7581 12.7598C22.7581 13.7782 22.6623 14.7871 22.4804 15.8055C21.8292 20.4165 19.6747 23.9243 18.7363 25.1218C18.0756 24.292 17.1468 22.7267 16.4861 21.152C16.4861 21.152 15.27 18.2949 14.9827 15.4378C14.887 14.5137 14.8008 13.6839 14.8008 12.7598C14.8008 10.8268 15.0785 8.70516 15.7392 6.48925C16.5818 3.53784 18.2671 0.954189 18.7363 0.312988C19.014 0.77503 21.1685 3.72644 22.0112 7.41334C22.5761 9.53496 22.7581 11.1945 22.7581 12.7598Z" fill="black"/>
<path d="M13.8653 12.761V22.6242C11.9023 22.6242 9.92978 23.3597 8.43601 24.8401C8.06256 25.2078 7.78488 25.5756 7.49761 25.9433C5.43888 28.8947 5.81232 32.9494 8.43601 35.533C9.93936 37.004 11.9023 37.749 13.8653 37.749L13.7696 39.4085C6.18577 39.4085 0 33.3266 0 25.849C0 18.381 6.1762 12.2896 13.7696 12.2896H13.8653V12.761Z" fill="black"/>
<path d="M76.516 35.0801H76.2383V36.5605H76.516C76.7937 36.5605 76.8895 36.4662 76.8895 36.1927V35.4573C76.8895 35.1744 76.7937 35.0801 76.516 35.0801Z" fill="black"/>
<path d="M54.5141 33.8814V35.7295C54.5141 36.0973 54.4184 36.1916 54.1407 36.1916H53.9492V33.5136H54.1407C54.3226 33.4193 54.5141 33.5136 54.5141 33.8814Z" fill="black"/>
<path d="M52.5415 33.4205V36.0984H52.35C52.0723 36.0984 51.9766 36.0041 51.9766 35.6364V33.7882C51.9766 33.4205 52.0723 33.3262 52.35 33.3262H52.5415V33.4205Z" fill="black"/>
</svg>
