<svg width="87" height="41" viewBox="0 0 87 41" fill="none" xmlns="http://www.w3.org/2000/svg">
<path d="M15.7167 2.94824C15.7167 2.94824 11.4369 7.45421 11.6482 10.0662C11.849 12.0746 12.874 13.7709 14.0893 15.2798C16.6361 18.1832 20.7046 20.5974 20.7046 20.5974C16.6361 16.0811 13.9836 7.05875 15.7167 2.94824Z" fill="black"/>
<path d="M25.8948 2.85394C23.1472 2.45849 22.3335 1.1473 21.319 0.45007C19.998 -0.455283 18.4657 0.647789 17.9585 1.14729C12.8649 5.45553 18.7722 17.6934 21.2133 20.4927C21.1182 20.4927 18.8779 7.46395 25.8948 2.85394Z" fill="black"/>
<path d="M29.3602 4.45558C29.0537 3.75836 28.3457 3.24844 27.4263 3.15479C26.7183 3.15479 26.1054 3.55022 26.1054 3.55022C24.9852 4.35151 24.1715 5.35052 23.4635 6.55766C22.1425 8.96154 21.6247 12.0731 21.5296 14.581C21.4239 17.5884 21.6353 20.3982 21.6353 20.3982C21.6353 20.3982 22.0474 17.9943 22.8611 15.7881C23.6748 13.582 24.9958 10.9804 27.2361 9.16968C27.9441 8.5661 28.7578 8.17066 29.6772 7.86888C29.7618 5.4546 29.3602 4.54924 29.3602 4.45558Z" fill="black"/>
<path d="M37.5987 10.4698C37.5987 10.4698 31.8922 7.85779 29.4511 8.86721C27.6229 9.6685 26.1963 11.167 25.1712 12.78C23.1317 16.0892 22.1172 20.5952 22.1172 20.5952C25.1818 15.3816 33.0229 10.0639 37.5987 10.4698Z" fill="black"/>
<path d="M40.8536 19.8881C40.4415 17.1824 41.4666 15.9753 41.773 14.8722C42.2803 13.3737 40.6528 12.2602 40.1456 11.8647C34.4497 8.46182 24.4633 17.7756 22.4343 20.8871C22.3286 20.8975 34.2383 14.7785 40.8536 19.8881Z" fill="black"/>
<path d="M40.3469 23.6957C40.9598 23.1962 41.1606 22.3949 41.0549 21.4896C40.8541 20.7923 40.2412 20.3865 40.2412 20.3865C39.121 19.5852 37.8952 19.0857 36.5742 18.888C33.8266 18.3885 30.6669 18.888 28.2258 19.4915C25.2775 20.2928 22.625 21.3959 22.625 21.3959C22.625 21.3959 25.0661 20.99 27.4121 21.0941C29.7581 21.1982 32.8122 21.6977 35.1476 23.1962C35.9613 23.6957 36.6693 24.2993 37.1871 25.1006C39.5331 24.4033 40.2517 23.6957 40.3469 23.6957Z" fill="black"/>
<path d="M37.0948 33.2297C37.0948 33.2297 37.9085 27.0172 36.1754 25.1128C34.8544 23.6039 33.0157 22.8026 30.9867 22.3031C27.2246 21.3977 22.4375 21.8036 22.4375 21.8036C28.5456 23.1044 36.0803 28.8175 37.0948 33.2297Z" fill="black"/>
<path d="M28.9474 39.1422C31.4941 37.935 32.9208 38.445 34.136 38.445C35.7635 38.445 36.2707 36.6447 36.4821 35.937C38.0038 29.5163 25.999 23.0019 22.332 22.1069C22.332 22.2006 31.9063 31.4206 28.9474 39.1422Z" fill="black"/>
<path d="M25.1845 39.8372C25.8925 40.2327 26.7062 40.2327 27.5305 39.8372C28.1434 39.4314 28.3442 38.7341 28.3442 38.7341C28.7564 37.4333 28.8515 36.1325 28.6507 34.8213C28.2386 32.1157 26.9176 29.3059 25.491 27.2039C23.8636 24.6959 21.9297 22.4897 21.9297 22.4897C21.9297 22.4897 23.0499 24.5918 23.6628 26.9021C24.2757 29.2019 24.7829 32.1157 23.9692 34.8213C23.6628 35.7267 23.3563 36.528 22.7434 37.3293C24.2651 39.3377 25.1845 39.8372 25.1845 39.8372Z" fill="black"/>
<path d="M15.0078 39.7418C15.0078 39.7418 21.2216 38.5347 22.6376 36.3389C23.6521 34.6323 23.8635 32.6238 23.7578 30.6258C23.4513 26.817 21.6231 22.5088 21.6231 22.5088C22.0247 28.711 18.8756 37.5356 15.0078 39.7418Z" fill="black"/>
<path d="M6.75391 34.0308C8.68778 36.0392 8.5821 37.5377 8.99424 38.6408C9.50148 40.1497 11.4353 40.1393 12.1539 40.0457C18.8749 39.4421 21.3161 26.2156 21.1153 22.5005C21.1153 22.5005 15.1023 34.3326 6.75391 34.0308Z" fill="black"/>
<path d="M4.92464 30.7222C4.72385 31.5235 5.03031 32.3248 5.63267 32.8243C6.13991 33.3238 6.95362 33.3238 6.95362 33.3238C8.27457 33.3238 9.59552 33.022 10.8214 32.4184C13.3682 31.2113 15.6085 29.0051 17.2359 27.0071C19.1698 24.6969 20.7021 22.189 20.7021 22.189C20.7021 22.189 18.969 23.8956 17.0351 25.1964C14.9956 26.4972 12.3537 27.8084 9.50041 27.9021C8.58103 27.9021 7.67221 27.798 6.64716 27.6003C5.01975 29.7128 4.92464 30.6181 4.92464 30.7222Z" fill="black"/>
<path d="M1.76562 21.0938C1.76562 21.0938 4.81966 26.5051 7.36645 27.1086C9.30032 27.5145 11.3399 27.1086 13.1681 26.4114C16.7293 24.9129 20.2906 21.895 20.2906 21.895C14.7004 24.2989 5.12612 24.1012 1.76562 21.0938Z" fill="black"/>
<path d="M4.81873 11.5698C3.49778 13.9737 2.07115 14.3796 1.05666 15.0768C-0.264289 16.0758 0.338063 17.7825 0.644524 18.4901C3.29699 24.505 16.8341 22.7984 20.3954 21.4976C20.2897 21.4872 7.05906 19.4891 4.81873 11.5698Z" fill="black"/>
<path d="M7.47111 8.86607C6.65741 8.97013 5.94938 9.46964 5.64292 10.2709C5.33646 10.9682 5.53724 11.6758 5.53724 11.6758C5.94938 12.9766 6.65741 14.0797 7.57679 15.0891C9.51066 17.0975 12.2582 18.492 14.6994 19.3973C17.5526 20.5004 20.4059 21.104 20.4059 21.104C20.4059 21.104 18.1655 20.0009 16.3373 18.596C14.5091 17.0871 12.3639 15.0891 11.3494 12.3834C11.043 11.4781 10.8422 10.5831 10.8422 9.67776C8.4856 8.65794 7.47111 8.762 7.47111 8.86607Z" fill="black"/>
<path d="M67.4332 13.4795L68.342 18.6931H68.4476L69.367 13.4795H72.0089L70.3815 19.9938L72.1146 27.809H69.0606L68.0461 21.7005L67.021 27.809H64.2734L66.0065 20.3893L64.3791 13.4795H67.4332Z" fill="black"/>
<path d="M77.3039 27.809H74.4612V15.5816H72.5273V13.4795H79.3434V15.5816H77.3039V27.809Z" fill="black"/>
<path d="M83.2096 21.8982L82.808 15.9874H82.7023L82.1951 21.8982H83.2096ZM81.17 13.4795H85.0378L86.7709 27.8194H83.7168L83.4104 23.9066H81.9837L81.5716 27.8194H78.9297L81.17 13.4795Z" fill="black"/>
<path d="M60.3008 21.8982L59.8886 15.9874H59.7829L59.2757 21.8982H60.3008ZM58.1661 13.4795H62.0338L63.7669 27.8194H60.7129L60.4064 23.9066H58.9798L58.5677 27.8194H55.9258L58.1661 13.4795Z" fill="black"/>
<path d="M53.7837 13.4795H49.9159L47.7812 27.809H50.3175L51.5433 15.9874H51.649L52.5578 27.809H55.5168L53.7837 13.4795Z" fill="black"/>
</svg>
