<svg width="110" height="20" viewBox="0 0 110 20" fill="none" xmlns="http://www.w3.org/2000/svg">
<path d="M46.5469 19.5548C52.9825 13.1029 59.376 6.60932 65.8011 0.146973C72.1733 6.65095 78.609 13.0821 85.0129 19.5548C83.1742 19.5756 81.346 19.5652 79.5072 19.5652C74.9526 14.9136 70.324 10.3452 65.7799 5.68315C61.2253 10.3348 56.6073 14.9136 52.0632 19.5652C50.235 19.5548 48.3856 19.5652 46.5469 19.5548Z" fill="black"/>
<path d="M24.8758 13.7463C28.0672 13.7671 31.248 13.7463 34.4394 13.7567C32.8226 12.1853 31.2797 10.5411 29.6523 8.98017C28.0249 10.5307 26.5032 12.1853 24.8758 13.7463ZM14.3398 19.553C19.4546 14.4018 24.5482 9.22992 29.684 4.09961C34.767 9.27155 39.8712 14.4123 44.9964 19.553C43.4219 19.5322 41.8367 19.6466 40.2622 19.501C39.2583 18.8454 38.5291 17.8255 37.6731 16.993C32.3576 16.993 27.0421 17.0034 21.716 16.9826C20.86 17.8567 19.9829 18.6997 19.1058 19.553C17.5101 19.5634 15.925 19.5634 14.3398 19.553Z" fill="black"/>
<path d="M0.453125 4.85889C7.57572 4.85889 14.6983 4.86929 21.8209 4.85889C20.5739 6.05562 19.3692 7.29399 18.0905 8.4595C13.4196 8.42828 8.74872 8.45949 4.07782 8.44909C4.06725 12.1538 4.07782 15.8584 4.07782 19.5527H0.453125V4.85889Z" fill="black"/>
<path d="M87.6429 5.7963C88.6785 4.92217 90.0735 4.84933 91.3416 4.85973C97.2806 4.88055 103.22 4.84933 109.159 4.88055C108.25 6.08769 107.309 7.26361 106.39 8.46034C101.486 8.46034 96.5725 8.46034 91.6692 8.46034C90.8766 8.43953 89.7458 8.64765 89.6719 9.65707C89.5768 11.3429 89.5662 13.0495 89.6719 14.7354C89.8515 15.828 91.0879 16.0882 91.9967 16.0674C96.805 16.0674 101.613 16.057 106.422 16.0674C107.33 17.2329 108.239 18.388 109.148 19.5639C102.871 19.5743 96.5937 19.5743 90.3271 19.5639C88.2981 19.6056 86.1212 18.0342 86.0155 15.8176C85.9627 13.7676 86.0049 11.7071 85.9944 9.64667C85.9627 8.18978 86.4805 6.68084 87.6429 5.7963Z" fill="black"/>
</svg>
