<svg width="81" height="40" viewBox="0 0 81 40" fill="none" xmlns="http://www.w3.org/2000/svg">
<g clip-path="url(#clip0_166_9565)">
<path d="M68.7524 20.0614C68.7855 20.0462 68.7991 20.0329 68.8108 20.0348C71.1732 20.0538 73.555 19.7678 75.8882 20.2375C78.2604 20.7149 79.9514 22.2832 80.4749 24.7646C80.8213 26.4145 80.7395 28.0226 80.0818 29.5891C79.4143 31.1689 78.2253 32.2126 76.6005 32.6975C75.7287 32.9589 74.7907 33.0858 73.8781 33.1237C72.2765 33.19 70.6653 33.1445 69.0579 33.1445C68.9645 33.1445 68.8711 33.1332 68.7485 33.1218V20.0614H68.7524ZM71.576 26.5584C71.576 27.7972 71.5779 29.0341 71.576 30.2748C71.576 30.4908 71.5663 30.6745 71.8815 30.665C72.7514 30.6404 73.629 30.6916 74.493 30.6101C75.7734 30.4908 76.8145 29.9263 77.3516 28.7027C77.8342 27.6078 77.8653 26.458 77.626 25.2988C77.2932 23.6793 76.1685 22.6734 74.5047 22.5446C73.666 22.4783 72.8195 22.5087 71.9788 22.467C71.6422 22.4518 71.5663 22.5749 71.5721 22.8837C71.5838 24.1111 71.576 25.3348 71.576 26.5584ZM52.7741 33.1464C51.6513 33.1464 50.6375 33.1502 49.6236 33.137C49.5263 33.137 49.4076 33.0366 49.3395 32.9513C48.2614 31.5799 47.2009 30.201 46.1131 28.839C45.9925 28.6894 45.7453 28.5776 45.5468 28.5606C45.1012 28.5189 43.8266 28.5398 43.8266 28.5398C43.8266 28.5398 43.811 28.6458 43.8149 28.9356C43.8266 30.1612 43.8188 31.3848 43.8188 32.6104V33.118H40.9952V20.0386C41.1061 20.0273 41.1996 20.0083 41.293 20.0083C43.2389 20.0121 45.1849 19.9988 47.1328 20.031C48.1077 20.0443 49.034 20.3038 49.8863 20.8001C51.0403 21.4725 51.5949 22.5124 51.6863 23.7891C51.7291 24.3555 51.6785 24.9522 51.554 25.5072C51.2777 26.7251 50.4565 27.515 49.3181 28.0037C49.1721 28.0662 49.0262 28.1325 48.8374 28.2159C50.1432 29.8524 51.4275 31.4587 52.7761 33.1483L52.7741 33.1464ZM43.8149 26.1872C44.7315 26.1872 45.6013 26.1891 46.4673 26.1853C46.6949 26.1853 46.9304 26.1872 47.1561 26.1417C48.2867 25.922 48.8588 25.2552 48.8121 24.2343C48.7654 23.2569 48.1291 22.6109 46.9966 22.5276C46.0333 22.4575 45.0662 22.4916 44.0971 22.4727C43.883 22.4651 43.811 22.5541 43.813 22.7568C43.8208 23.2682 43.813 23.7815 43.813 24.293V26.1853L43.8149 26.1872ZM67.433 33.1427C66.4834 33.1427 65.5863 33.1521 64.6912 33.1332C64.5919 33.1313 64.4518 32.9741 64.4051 32.8604C64.1483 32.2524 63.9089 31.6387 63.6832 31.0212C63.5976 30.7882 63.4789 30.6897 63.2123 30.6897C61.4142 30.701 59.6181 30.701 57.82 30.6916C57.5437 30.6897 57.4133 30.7768 57.3199 31.0401C57.0922 31.6709 56.8237 32.2903 56.5571 32.9078C56.5123 33.0044 56.3878 33.1313 56.2944 33.1351C55.3973 33.154 54.5021 33.1445 53.5428 33.1445C53.8502 32.385 54.1285 31.6784 54.4224 30.9738C55.8877 27.4298 57.3608 23.8895 58.8183 20.3436C58.9214 20.0917 59.0479 19.997 59.3203 20.0064C60.124 20.0216 60.9296 20.0159 61.7314 20.0102C61.9376 20.0102 62.0739 20.0424 62.1673 20.2697C63.8933 24.4767 65.6272 28.6818 67.361 32.8869C67.3805 32.9475 67.3941 33.012 67.435 33.1464L67.433 33.1427ZM60.4937 22.8667C59.7854 24.6889 59.0849 26.494 58.3707 28.339H62.6343C61.9124 26.4978 61.2079 24.687 60.4918 22.8667H60.4937ZM16.2718 33.1521H13.4404V20.05C14.3122 20.05 15.1665 20.0424 16.0149 20.0595C16.1044 20.0614 16.2076 20.1883 16.2757 20.2792C18.0426 22.717 19.8037 25.1605 21.5648 27.6021C21.7769 27.8938 21.9929 28.1818 22.2576 28.5398V20.0651H25.0636V33.1711C24.2055 33.1711 23.3531 33.1805 22.5028 33.1597C22.4055 33.1578 22.2907 33.0101 22.2167 32.9078C20.3252 30.2919 18.4377 27.6741 16.5501 25.0563C16.4859 24.9654 16.4061 24.8821 16.2757 24.7305L16.2718 33.1521ZM6.80859 20.0632H9.61078V33.1408H6.80859V20.0632ZM38.0763 32.3471C38.0763 32.457 37.9303 32.6293 37.8116 32.6748C36.2665 33.4836 33.6123 33.7242 31.4386 33.1464C28.9011 32.4721 27.2276 30.9056 26.7216 28.3276C26.276 26.0716 26.5698 23.9141 28.1791 22.1033C29.1482 21.016 30.4092 20.4156 31.822 20.1049C33.7368 19.6882 35.5913 19.9193 37.4127 20.5936C37.6988 20.6997 37.7922 20.8512 37.7805 21.1505C37.7571 21.8646 37.7708 22.5806 37.7708 23.3554C37.617 23.2872 37.5256 23.2512 37.4341 23.2076C35.7781 22.3855 34.0598 22.1298 32.2676 22.6829C30.3897 23.2625 29.3039 24.8934 29.4265 26.8426C29.4946 27.8616 29.7009 28.8239 30.3956 29.6157C31.1856 30.5173 32.2442 30.881 33.4021 30.9757C33.9489 31.0193 34.3284 31.0174 34.6611 30.9568C35.1126 30.8715 35.3753 30.8696 35.387 30.1631C35.3733 29.5588 35.3714 28.9016 35.3714 28.2424H33.0868V25.7042H35.3753V25.6966C36.0389 25.6966 36.6771 25.6947 37.3057 25.7042H37.6598V25.706C37.7318 25.7098 37.8039 25.7079 37.8759 25.7098C38.0529 25.7098 38.0743 25.8765 38.0743 25.9693C38.086 27.9564 38.086 30.3544 38.0724 32.3452L38.0763 32.3471Z" fill="black"/>
<path d="M3.20842 36.6431V15.4263L22.2574 5.47608V16.5571H25.0616V0.90918L0.402344 13.7897V39.3727H25.0616V36.6412L3.20842 36.6431Z" fill="black"/>
</g>
<defs>
<clipPath id="clip0_166_9565">
<rect width="80.2716" height="38.4635" fill="white" transform="translate(0.40625 0.908691)"/>
</clipPath>
</defs>
</svg>
