<svg width="149" height="37" viewBox="0 0 149 37" fill="none" xmlns="http://www.w3.org/2000/svg">
<path d="M21.6436 10.4976C21.3882 10.4976 21.1966 10.4328 21.1328 10.368L13.7266 6.02648L21.5159 1.42578C21.5159 1.42578 21.5797 1.42578 21.7074 1.42578C21.8351 1.42578 21.8989 1.42578 21.8989 1.42578L29.6883 6.02648L22.282 10.368C22.2182 10.4328 22.0266 10.4976 21.7713 10.4976H21.6436Z" fill="black"/>
<path d="M21.6456 3.04553L26.7533 6.02627L21.6456 9.007L16.5378 6.02627L21.6456 3.04553ZM21.6456 0C21.3263 0 21.0071 0.0647986 20.7517 0.194396L10.8555 6.02627V6.09106L20.3686 11.6637C20.6879 11.8581 21.1348 11.9877 21.5817 11.9877H21.6456H21.7094C22.1563 11.9877 22.6033 11.8581 22.9225 11.6637L32.4357 6.09106V6.02627L22.5394 0.194396C22.3479 0.0647986 21.9648 0 21.6456 0Z" fill="black"/>
<path d="M21.6443 35.5747C21.3251 35.5747 21.1336 35.5099 21.0697 35.4451L1.91569 24.1702C1.72414 24.0406 1.46875 23.587 1.46875 23.1982V9.00732L19.7928 19.7639C20.3036 20.0879 20.942 20.2175 21.6443 20.2823H21.7082C22.4105 20.2823 23.049 20.0879 23.5597 19.7639L41.8838 9.00732V23.1982C41.8838 23.587 41.6284 24.0406 41.4368 24.1702L22.2828 35.5099C22.219 35.5747 22.0274 35.6395 21.772 35.6395C21.7082 35.5747 21.6443 35.5747 21.6443 35.5747Z" fill="black"/>
<path d="M2.8731 11.5341L19.0902 21.0595C19.7925 21.5131 20.6863 21.7075 21.5802 21.7723H21.644H21.7079C22.6018 21.7723 23.4956 21.5131 24.1979 21.0595L40.415 11.5341V23.0682L21.7079 34.1488H21.644L2.93695 23.0682V11.5341H2.8731ZM0.0638507 5.96143C3.89595e-06 5.96143 0 5.96143 0 6.02622V23.1978C0 24.0402 0.44692 25.0122 1.14923 25.401L20.3033 36.6759C20.6225 36.8703 21.1333 36.9999 21.5802 36.9999H21.644H21.7079C22.1548 36.9999 22.6018 36.8703 22.9848 36.6759L42.1389 25.401C42.8412 25.0122 43.2881 23.9754 43.2881 23.1978V6.09102C43.2881 6.02622 43.2881 6.02622 43.2242 6.02622C43.2242 6.02622 43.1604 6.02622 43.1604 6.09102C42.9689 6.73901 42.5219 6.9982 42.0112 7.2574L22.7933 18.5323C22.474 18.7267 22.0271 18.7915 21.644 18.8563C21.1971 18.8563 20.814 18.7267 20.4948 18.5323L1.27694 7.2574C0.830008 6.9334 0.383084 6.67421 0.0638507 5.96143C0.127697 6.02622 0.127697 6.02622 0.0638507 5.96143C0.127697 6.02622 0.127697 6.02622 0.0638507 5.96143C0.127697 6.02622 0.127697 6.02622 0.0638507 5.96143C0.127697 6.02622 0.127697 5.96143 0.0638507 5.96143Z" fill="black"/>
<path d="M70.1729 9.59078H61.8728L60.8512 18.3386C60.532 20.7361 60.1489 22.8097 59.6382 24.4944C59.1274 26.1792 58.4889 27.6048 57.6589 28.6416C56.8289 29.7431 55.935 30.5207 54.7858 30.9743C53.7004 31.4279 52.4235 31.6871 50.955 31.6871H50.125V28.188H50.6358C51.4658 28.188 52.2319 28.0584 52.8704 27.6696C53.5089 27.3456 54.1474 26.7624 54.6581 25.92C55.1689 25.0776 55.6158 23.9113 55.9989 22.4209C56.382 20.9305 56.7012 19.0514 56.9566 16.7186L58.1697 6.02686H74.3229V31.4279H70.1729V9.59078Z" fill="black"/>
<path d="M98.6473 31.4933H94.6888V12.3129L81.9194 31.4285H77.9609V6.09229H81.8556V25.2727L94.6249 6.09229H98.5834V31.4933H98.6473Z" fill="black"/>
<path d="M122.977 31.4933H119.082V12.3129L106.313 31.4285H102.418V6.09229H106.313V25.2727L119.082 6.09229H123.04V31.4933H122.977Z" fill="black"/>
<path d="M148.004 23.0031C147.557 25.9191 146.472 28.187 144.748 29.807C142.96 31.427 140.534 32.2693 137.341 32.2693C135.426 32.2693 133.766 31.9453 132.361 31.3622C130.893 30.779 129.68 29.8718 128.722 28.7054C127.764 27.539 126.998 26.1135 126.551 24.4935C126.041 22.8735 125.785 20.9944 125.785 18.9208C125.785 16.9121 126.041 15.0329 126.615 13.3482C127.126 11.6634 127.956 10.2378 128.977 9.07145C129.999 7.90507 131.212 6.99789 132.681 6.34991C134.149 5.70192 135.809 5.37793 137.661 5.37793C140.598 5.37793 142.896 6.09071 144.556 7.58108C146.152 9.07145 147.238 11.0802 147.685 13.6721L143.535 14.4497C143.343 13.6721 143.152 12.8946 142.896 12.1818C142.641 11.5338 142.258 10.8858 141.747 10.4322C141.236 9.91383 140.661 9.52504 140.023 9.26584C139.321 9.00665 138.491 8.87705 137.533 8.87705C136.192 8.87705 135.107 9.13625 134.213 9.65463C133.255 10.173 132.553 10.8858 131.914 11.793C131.34 12.7002 130.893 13.7369 130.638 14.9681C130.382 16.1993 130.254 17.4953 130.254 18.856C130.254 20.2816 130.382 21.5776 130.638 22.8087C130.893 24.0399 131.276 25.0767 131.914 25.9839C132.489 26.8911 133.255 27.6038 134.149 28.1222C135.043 28.6406 136.192 28.8998 137.533 28.8998C139.576 28.8998 141.045 28.3814 142.002 27.3446C142.96 26.3079 143.598 24.8823 143.918 23.1327H148.004V23.0031Z" fill="black"/>
</svg>
