<svg width="72" height="54" viewBox="0 0 72 54" fill="none" xmlns="http://www.w3.org/2000/svg">
<g style="mix-blend-mode:multiply">
<path d="M8.07553 45.3756C7.86403 44.7194 7.42177 43.1753 5.46058 43.1753C4.36461 43.1753 2.40343 44.0439 2.40343 47.3443C2.40343 49.5446 3.26865 51.5133 5.46058 51.5133C6.76804 51.5133 7.86403 50.6448 8.07553 49.313H10.479C10.0367 51.9379 8.28701 53.6943 5.46058 53.6943C2.40342 53.6943 0 51.494 0 47.5566C0 43.3876 2.40342 41.4189 5.46058 41.4189C8.95996 41.4189 10.479 43.8316 10.479 45.5879H8.07553V45.3756Z" fill="black"/>
<path d="M13.5402 47.7882L16.3858 44.4878H19.2123L16.1551 48.0006L19.2123 53.2697H16.5973L14.4054 49.5446L13.5402 50.6255V53.2697H11.1367V44.4878H13.5402V47.7882Z" fill="black"/>
<path d="M20.9578 48.8853C20.9578 49.9854 21.4001 51.5102 23.1498 51.5102C24.8995 51.5102 25.3418 49.9854 25.3418 48.8853C25.3418 47.7851 25.1302 46.2604 23.1498 46.2604C21.4001 46.2411 20.9578 47.7851 20.9578 48.8853ZM27.5144 48.8853C27.5144 51.9541 25.3225 53.4981 23.1498 53.4981C20.7464 53.4981 18.7852 51.9734 18.7852 48.8853C18.7852 45.8164 20.9771 44.2917 23.1498 44.2917C25.5533 44.2724 27.5144 45.8164 27.5144 48.8853Z" fill="black"/>
<path d="M36.2443 44.4844V53.247H34.0524V46.4531H31.649V49.078C31.649 52.3591 30.553 53.4593 29.034 53.4593C28.5918 53.4593 27.9381 53.4593 27.7266 53.247V51.4906H28.3803C29.034 51.4906 29.4763 51.0467 29.4763 48.4218V44.4844H36.2443Z" fill="black"/>
<path d="M39.5317 47.7882L42.5889 44.4878H45.2038L42.1467 48.0006L45.4153 53.2697H42.5889L40.6085 49.5446L39.5317 50.6255V53.2697H37.3398V44.4878H39.5317V47.7882Z" fill="black"/>
<path d="M47.1649 48.8853C47.1649 49.9854 47.6071 51.5102 49.3568 51.5102C51.1065 51.5102 51.5487 49.9854 51.5487 48.8853C51.5487 47.7851 51.3372 46.2604 49.3568 46.2604C47.6071 46.2411 47.1649 47.7851 47.1649 48.8853ZM53.7214 48.8853C53.7214 51.9541 51.5295 53.4981 49.3568 53.4981C46.9534 53.4981 44.9922 51.9734 44.9922 48.8853C44.9922 45.8164 47.1841 44.2917 49.3568 44.2917C51.5295 44.2724 53.7214 45.8164 53.7214 48.8853Z" fill="black"/>
<path d="M56.7742 51.7256H58.5239C59.3891 51.7256 59.8313 51.5133 59.8313 50.6255C59.8313 49.9693 59.1776 49.5253 58.5239 49.5253H56.7742V51.7256ZM56.7742 48.0006H58.2932C58.9469 48.0006 59.6006 47.7883 59.6006 46.9004C59.6006 46.2442 59.1584 46.0319 58.2932 46.0319H56.7742V48.0006ZM54.3708 44.4878H58.2932C60.2544 44.4878 61.5619 45.3563 61.5619 46.6881C61.5619 47.7882 60.9081 48.4445 60.0236 48.6568C60.8889 48.8691 61.9849 49.5253 61.9849 50.8571C61.9849 52.3819 60.6774 53.2697 58.7162 53.2697H54.3516V44.4878H54.3708Z" fill="black"/>
<path d="M64.6411 48.8853C64.6411 49.9854 65.0834 51.5102 66.8331 51.5102C68.5828 51.5102 69.025 49.9854 69.025 48.8853C69.025 47.7851 68.8136 46.2604 66.8331 46.2604C64.8527 46.2411 64.6411 47.7851 64.6411 48.8853ZM71.1786 48.8853C71.1786 51.9541 68.9866 53.4981 66.8139 53.4981C64.4104 53.4981 62.4492 51.9734 62.4492 48.8853C62.4492 45.8164 64.6411 44.2917 66.8139 44.2917C69.0058 44.2724 71.1786 45.8164 71.1786 48.8853Z" fill="black"/>
<path d="M21.6105 16.8689L12.439 14.6686C10.9201 14.2247 8.51667 13.8001 8.51667 10.7313C8.51667 7.45011 12.016 6.34997 15.0732 6.34997C21.8412 6.34997 22.495 10.2873 22.7257 12.0437H27.0903V19.0692C25.3214 17.9691 23.5717 17.5251 21.6105 16.8689ZM16.5921 39.2386C18.5533 39.2386 23.3602 38.7946 26.8596 36.1697V38.1384H34.0699V29.3758L37.127 26.307L43.6836 38.1384H52.4129L42.3569 21.2695L51.9706 10.5189H43.0106L33.8392 21.0379V0.868536H26.6289V4.16898C24.4369 1.75637 20.9568 0 15.2655 0C3.24831 0 1.0756 7.45011 1.0756 11.4068C1.0756 17.1005 4.13278 20.1693 9.38186 21.4818L16.8037 23.2382C20.7261 24.1067 23.5717 24.9946 23.5717 27.8511C23.5717 31.7884 19.4186 32.6763 15.7077 32.6763C8.93965 32.6763 7.84369 28.7389 7.84369 26.5386H0.421875C0.652604 31.3445 3.05604 39.2386 16.5921 39.2386Z" fill="black"/>
</g>
</svg>
